<?xml version="1.0" encoding="UTF-8" standalone="no"?><!DOCTYPE svg PUBLIC "-//W3C//DTD SVG 1.1//EN" "http://www.w3.org/Graphics/SVG/1.1/DTD/svg11.dtd"><svg width="100%" height="100%" viewBox="0 0 632 553" version="1.1" xmlns="http://www.w3.org/2000/svg" xmlns:xlink="http://www.w3.org/1999/xlink" xml:space="preserve" xmlns:serif="http://www.serif.com/" style="fill-rule:evenodd;clip-rule:evenodd;stroke-linejoin:round;stroke-miterlimit:2;"><rect id="Artboard1" x="0" y="0" width="631.866" height="552.977" style="fill:none;"/><path d="M358.619,546.599c-27.605,0 -58.281,-13.202 -97.134,-32.508c-36.809,-18.286 -64.419,-31.493 -84.865,-31.493c-28.633,0 -51.128,13.207 -74.64,35.565c-15.341,15.234 -24.539,25.39 -33.743,25.39c-6.137,0 -8.181,-1.011 -8.181,-5.074c0,-14.237 64.419,-59.944 185.066,-120.913c81.794,-42.665 160.532,-72.127 220.853,-116.832c62.37,-46.737 94.059,-104.65 94.059,-158.496c0,-68.069 -44.981,-115.821 -103.262,-115.821c-70.552,0 -127.812,53.846 -127.812,112.774c0,43.685 21.478,68.069 56.243,68.069c17.38,0 31.693,-6.093 46.012,-18.281l2.039,2.032c-21.463,39.622 -44.99,58.923 -76.688,58.923c-38.853,0 -70.542,-33.524 -70.542,-73.146c0,-41.659 27.6,-91.443 74.635,-127.003c33.747,-25.4 80.782,-40.638 125.762,-40.638c83.843,0 138.037,50.799 138.037,123.951c0,90.426 -67.486,159.511 -200.402,217.424c-68.508,29.462 -158.483,54.861 -255.618,119.884l0,2.031c22.495,-13.208 43.968,-19.311 68.507,-19.311c69.525,0 122.692,51.819 177.907,51.819c37.836,0 82.826,-44.705 138.037,-131.055l7.145,4.058c-71.559,112.774 -139.039,168.651 -201.415,168.651Z" style="fill:#ed1b2d;fill-rule:nonzero;"/><path d="M379.956,442.225l0,-271.521l-47.214,0l0,100.36c-6.274,-9.997 -21.313,-19.118 -44.294,-19.118c-50.563,0 -91.519,43.013 -91.519,95.147c0,52.564 40.956,95.132 91.519,95.132c19.638,0 35.095,-6.949 44.294,-17.802l34.258,17.802l12.956,0Zm-47.214,-95.132c0,44.309 -16.3,73.418 -44.294,73.418c-28,0 -44.299,-29.109 -44.299,-73.418c0,-44.319 16.299,-73.423 44.299,-73.423c27.994,0 44.294,29.104 44.294,73.423Z" style="fill:#231f20;fill-rule:nonzero;"/><path d="M176.108,175.709l-2.16,0l-104.012,205.271c-22.315,43.99 -30.234,53.643 -39.233,64.016l65.86,0c-1.441,-21.105 8.999,-44.347 13.681,-54.363l13.676,-28.959l94.653,0l15.837,36.121c9.714,21.811 11.15,35.401 11.15,47.201l64.064,-0.711c-10.075,-13.589 -22.67,-30.762 -42.104,-72.6l-91.412,-195.976Zm-2.881,82.611l31.309,71.88l-65.504,0l34.195,-71.88Z" style="fill:#231f20;fill-rule:nonzero;"/><path d="M157.721,167.531l-2.161,0l-104.012,205.276c-22.315,43.994 -30.233,53.647 -39.227,64.007l65.859,0c-1.44,-21.091 8.999,-44.338 13.677,-54.349l13.681,-28.969l94.652,0l15.837,36.121c9.715,21.816 11.155,35.401 11.155,47.197l64.059,-0.707c-10.079,-13.594 -22.675,-30.758 -42.113,-72.6l-91.407,-195.976Zm-2.886,82.611l31.314,71.88l-65.5,0l34.186,-71.88Z" style="fill:#fff;fill-rule:nonzero;"/><path d="M224.33,428.108l57.309,-28.707l5.042,5.924c0,0 -15.584,7.284 -32.545,15.491c-16.976,8.197 -28.428,15.035 -28.428,15.035l-1.378,-7.743Z" style="fill:#ed1b2d;fill-rule:nonzero;"/></svg>