<?xml version="1.0" encoding="UTF-8" standalone="no"?><!DOCTYPE svg PUBLIC "-//W3C//DTD SVG 1.1//EN" "http://www.w3.org/Graphics/SVG/1.1/DTD/svg11.dtd"><svg width="100%" height="100%" viewBox="0 0 1600 1600" version="1.1" xmlns="http://www.w3.org/2000/svg" xmlns:xlink="http://www.w3.org/1999/xlink" xml:space="preserve" xmlns:serif="http://www.serif.com/" style="fill-rule:evenodd;clip-rule:evenodd;stroke-linecap:round;stroke-linejoin:round;stroke-miterlimit:10;"><g id="Layer-3" serif:id="Layer 3"></g><g id="Layer2"><g opacity="0.28"><path d="M30.384,783.019l58.519,-29.259l58.518,29.259l-58.518,29.261l-58.519,-29.261Z" style="fill:#fff;fill-rule:nonzero;"/><path d="M31.509,783.019l57.394,28.696l57.393,-28.696l-57.393,-28.696l-57.394,28.696Zm57.394,29.763c-0.078,0 -0.155,-0.018 -0.226,-0.053l-58.518,-29.26c-0.17,-0.086 -0.278,-0.259 -0.278,-0.45c0,-0.19 0.108,-0.364 0.278,-0.45l58.518,-29.258c0.142,-0.071 0.309,-0.071 0.45,0l58.518,29.258c0.171,0.086 0.279,0.26 0.279,0.45c0,0.191 -0.108,0.364 -0.279,0.45l-58.518,29.26c-0.07,0.035 -0.148,0.053 -0.224,0.053" style="fill-rule:nonzero;"/><path d="M42.088,759.611l0,23.408l11.703,5.852l0,-23.408l-11.703,-5.852Z" style="fill:#fff;fill-rule:nonzero;"/><path d="M42.591,782.708l10.697,5.348l0,-22.283l-10.697,-5.348l0,22.283Zm11.2,6.665c-0.076,0 -0.154,-0.018 -0.224,-0.052l-11.705,-5.852c-0.169,-0.086 -0.277,-0.26 -0.277,-0.45l0,-23.408c0,-0.174 0.091,-0.336 0.238,-0.428c0.148,-0.091 0.334,-0.1 0.489,-0.022l11.704,5.852c0.171,0.086 0.278,0.259 0.278,0.45l0,23.408c0,0.173 -0.09,0.335 -0.239,0.426c-0.08,0.051 -0.172,0.076 -0.264,0.076" style="fill-rule:nonzero;"/><path d="M53.792,788.871l11.704,-5.852l-0.001,-23.408l-11.703,5.852l0,23.408Z" style="fill-rule:nonzero;"/><path d="M54.294,765.773l0,22.282l10.698,-5.347l0,-22.283l-10.698,5.348Zm-0.503,23.599c-0.091,0 -0.184,-0.025 -0.265,-0.075c-0.148,-0.091 -0.238,-0.253 -0.238,-0.427l0,-23.408c0,-0.19 0.107,-0.364 0.278,-0.45l11.704,-5.852c0.156,-0.077 0.341,-0.068 0.489,0.023c0.149,0.092 0.239,0.253 0.239,0.427l0,23.408c0,0.191 -0.107,0.364 -0.278,0.45l-11.704,5.852c-0.071,0.035 -0.149,0.052 -0.225,0.052" style="fill-rule:nonzero;"/><path d="M112.31,759.611l0,23.408l11.704,5.852l0,-23.408l-11.704,-5.852Z" style="fill:#fff;fill-rule:nonzero;"/><path d="M112.813,782.708l10.697,5.348l0,-22.283l-10.698,-5.348l0,22.283Zm11.201,6.665c-0.076,0 -0.154,-0.018 -0.225,-0.052l-11.704,-5.852c-0.169,-0.086 -0.278,-0.26 -0.278,-0.45l0.001,-23.408c-0.001,-0.174 0.09,-0.336 0.239,-0.428c0.146,-0.091 0.333,-0.1 0.488,-0.022l11.704,5.852c0.171,0.086 0.278,0.259 0.278,0.45l0,23.408c0,0.173 -0.09,0.335 -0.239,0.426c-0.079,0.051 -0.172,0.076 -0.264,0.076" style="fill-rule:nonzero;"/><path d="M124.014,788.871l11.703,-5.852l0,-23.408l-11.703,5.852l0,23.408Z" style="fill-rule:nonzero;"/><path d="M124.517,765.773l0,22.282l10.697,-5.347l0,-22.283l-10.697,5.348Zm-0.503,23.599c-0.091,0 -0.184,-0.025 -0.265,-0.075c-0.148,-0.091 -0.238,-0.253 -0.238,-0.427l0,-23.408c0,-0.19 0.108,-0.364 0.278,-0.45l11.704,-5.852c0.156,-0.077 0.341,-0.068 0.489,0.023c0.148,0.092 0.238,0.253 0.238,0.427l0,23.408c0,0.191 -0.107,0.364 -0.278,0.45l-11.703,5.852c-0.071,0.035 -0.148,0.052 -0.225,0.052" style="fill-rule:nonzero;"/><path d="M94.755,768.389l0,23.407l11.704,5.852l0,-23.407l-11.704,-5.852Z" style="fill:#fff;fill-rule:nonzero;"/><path d="M95.258,791.486l10.698,5.349l0,-22.283l-10.698,-5.349l0,22.283Zm11.201,6.665c-0.078,0 -0.154,-0.018 -0.226,-0.053l-11.704,-5.852c-0.169,-0.085 -0.277,-0.259 -0.277,-0.45l0,-23.407c0,-0.174 0.09,-0.336 0.239,-0.427c0.148,-0.092 0.332,-0.1 0.489,-0.022l11.702,5.852c0.172,0.085 0.28,0.258 0.28,0.449l0,23.407c0,0.175 -0.091,0.336 -0.239,0.429c-0.081,0.049 -0.173,0.074 -0.264,0.074" style="fill-rule:nonzero;"/><path d="M106.459,797.648l11.703,-5.852l0,-23.407l-11.703,5.852l0,23.407Z" style="fill-rule:nonzero;"/><path d="M106.962,774.552l0,22.283l10.697,-5.349l0,-22.284l-10.697,5.35Zm-0.503,23.599c-0.092,0 -0.185,-0.026 -0.266,-0.075c-0.147,-0.092 -0.237,-0.253 -0.237,-0.428l0,-23.407c0,-0.191 0.107,-0.365 0.277,-0.45l11.704,-5.852c0.155,-0.077 0.34,-0.07 0.489,0.022c0.148,0.091 0.239,0.254 0.239,0.428l0,23.407c0,0.191 -0.107,0.365 -0.279,0.45l-11.704,5.852c-0.07,0.035 -0.147,0.053 -0.223,0.053" style="fill-rule:nonzero;"/><path d="M59.644,768.389l0,23.407l11.703,5.852l0,-23.407l-11.703,-5.852Z" style="fill:#fff;fill-rule:nonzero;"/><path d="M60.147,791.486l10.697,5.349l0,-22.283l-10.697,-5.349l0,22.283Zm11.2,6.665c-0.076,0 -0.153,-0.018 -0.224,-0.053l-11.704,-5.852c-0.171,-0.085 -0.278,-0.259 -0.278,-0.45l0,-23.407c0,-0.174 0.09,-0.336 0.239,-0.427c0.148,-0.092 0.334,-0.1 0.489,-0.022l11.704,5.852c0.17,0.085 0.277,0.258 0.277,0.449l0,23.407c0,0.175 -0.09,0.336 -0.238,0.429c-0.08,0.049 -0.173,0.074 -0.265,0.074" style="fill-rule:nonzero;"/><path d="M71.347,797.648l11.704,-5.852l0,-23.407l-11.704,5.852l0,23.407Z" style="fill-rule:nonzero;"/><path d="M71.85,774.552l0,22.283l10.698,-5.349l0,-22.284l-10.698,5.35Zm-0.503,23.599c-0.091,0 -0.183,-0.026 -0.264,-0.075c-0.149,-0.092 -0.239,-0.253 -0.239,-0.428l0,-23.407c0,-0.191 0.108,-0.365 0.279,-0.45l11.703,-5.852c0.156,-0.077 0.34,-0.07 0.489,0.022c0.148,0.091 0.239,0.254 0.239,0.428l0,23.407c0,0.191 -0.108,0.365 -0.278,0.45l-11.703,5.852c-0.072,0.035 -0.148,0.053 -0.226,0.053" style="fill-rule:nonzero;"/><path d="M77.199,777.167l0,23.408l11.704,5.851l0,-23.407l-11.704,-5.852Z" style="fill:#fff;fill-rule:nonzero;"/><path d="M77.702,800.263l10.698,5.35l0,-22.284l-10.698,-5.348l0,22.282Zm11.201,6.665c-0.077,0 -0.154,-0.016 -0.225,-0.053l-11.703,-5.851c-0.171,-0.086 -0.279,-0.259 -0.279,-0.449l0,-23.408c0,-0.175 0.09,-0.336 0.239,-0.427c0.148,-0.093 0.334,-0.101 0.49,-0.023l11.703,5.852c0.17,0.086 0.278,0.259 0.278,0.449l0,23.408c0,0.173 -0.091,0.336 -0.239,0.427c-0.081,0.051 -0.172,0.075 -0.264,0.075" style="fill-rule:nonzero;"/><path d="M88.903,806.426l11.704,-5.851l0,-23.408l-11.704,5.852l0,23.407Z" style="fill-rule:nonzero;"/><path d="M89.406,783.33l0,22.283l10.698,-5.349l0,-22.283l-10.698,5.349Zm-0.503,23.598c-0.092,0 -0.184,-0.023 -0.264,-0.074c-0.149,-0.092 -0.239,-0.254 -0.239,-0.428l0,-23.407c0,-0.19 0.108,-0.364 0.277,-0.45l11.704,-5.852c0.156,-0.077 0.341,-0.069 0.49,0.023c0.148,0.092 0.239,0.253 0.239,0.427l0,23.408c0,0.191 -0.108,0.363 -0.28,0.449l-11.702,5.851c-0.071,0.038 -0.148,0.053 -0.225,0.053" style="fill-rule:nonzero;"/><path d="M30.384,783.019l0,23.407l58.519,29.26l0,-23.406l-58.519,-29.261Z" style="fill:#fff;fill-rule:nonzero;"/><path d="M30.887,806.115l57.513,28.756l0,-22.281l-57.513,-28.758l0,22.283Zm58.016,30.072c-0.078,0 -0.155,-0.017 -0.226,-0.052l-58.518,-29.26c-0.169,-0.084 -0.278,-0.258 -0.278,-0.449l0,-23.408c0,-0.174 0.091,-0.336 0.239,-0.427c0.148,-0.092 0.333,-0.1 0.489,-0.022l58.518,29.259c0.171,0.086 0.279,0.26 0.279,0.451l0,23.406c0,0.174 -0.091,0.336 -0.239,0.428c-0.081,0.049 -0.172,0.074 -0.264,0.074" style="fill-rule:nonzero;"/><path d="M88.903,812.279l58.518,-29.261l0,23.407l-58.518,29.26l0,-23.406Z" style="fill-rule:nonzero;"/><path d="M89.406,812.59l0,22.281l57.512,-28.756l0,-22.282l-57.512,28.757Zm-0.503,23.598c-0.092,0 -0.184,-0.026 -0.264,-0.075c-0.149,-0.091 -0.239,-0.253 -0.239,-0.427l0,-23.407c0,-0.191 0.108,-0.365 0.277,-0.451l58.519,-29.259c0.157,-0.077 0.341,-0.069 0.489,0.022c0.149,0.091 0.239,0.253 0.239,0.428l0,23.407c0,0.191 -0.108,0.365 -0.278,0.449l-58.518,29.26c-0.071,0.035 -0.148,0.053 -0.225,0.053" style="fill-rule:nonzero;"/><path d="M30.384,736.204l58.519,-29.259l58.518,29.259l-58.518,29.259l-58.519,-29.259Z" style="fill:#fff;fill-rule:nonzero;"/><path d="M31.509,736.204l57.394,28.697l57.393,-28.697l-57.393,-28.696l-57.394,28.696Zm57.394,29.762c-0.078,0 -0.155,-0.017 -0.226,-0.053l-58.518,-29.259c-0.17,-0.085 -0.278,-0.259 -0.278,-0.45c0,-0.19 0.108,-0.364 0.278,-0.449l58.518,-29.259c0.142,-0.071 0.309,-0.071 0.45,0l58.518,29.259c0.171,0.085 0.279,0.259 0.279,0.449c0,0.191 -0.108,0.365 -0.279,0.45l-58.518,29.259c-0.07,0.036 -0.148,0.053 -0.224,0.053" style="fill-rule:nonzero;"/><path d="M30.384,736.204l0,23.407l58.519,29.26l0,-23.408l-58.519,-29.259Z" style="fill:#fff;fill-rule:nonzero;"/><path d="M30.887,759.301l57.513,28.755l0,-22.282l-57.513,-28.756l0,22.283Zm58.016,30.072c-0.078,0 -0.155,-0.017 -0.226,-0.052l-58.518,-29.26c-0.169,-0.085 -0.278,-0.26 -0.278,-0.45l0,-23.407c0,-0.174 0.091,-0.336 0.239,-0.427c0.148,-0.092 0.333,-0.101 0.489,-0.022l58.518,29.258c0.171,0.086 0.279,0.26 0.279,0.45l0,23.408c0,0.174 -0.091,0.335 -0.239,0.427c-0.081,0.05 -0.172,0.075 -0.264,0.075" style="fill-rule:nonzero;"/><path d="M88.903,765.463l58.518,-29.259l0,23.407l-58.518,29.26l0,-23.408Z" style="fill-rule:nonzero;"/><path d="M89.406,765.773l0,22.282l57.512,-28.755l0,-22.283l-57.512,28.756Zm-0.503,23.599c-0.092,0 -0.184,-0.025 -0.264,-0.075c-0.149,-0.091 -0.239,-0.253 -0.239,-0.427l0,-23.408c0,-0.19 0.108,-0.364 0.277,-0.45l58.519,-29.258c0.157,-0.078 0.341,-0.069 0.489,0.022c0.149,0.092 0.239,0.254 0.239,0.427l0,23.407c0,0.191 -0.108,0.365 -0.278,0.451l-58.518,29.259c-0.071,0.035 -0.148,0.052 -0.225,0.052" style="fill-rule:nonzero;"/><path d="M42.088,736.204l46.814,-23.407l46.814,23.407l-46.814,23.407l-46.814,-23.407Z" style="fill:#fff;fill-rule:nonzero;"/><path d="M43.212,736.204l45.691,22.845l45.69,-22.845l-45.69,-22.844l-45.691,22.844Zm45.691,23.91c-0.077,0 -0.154,-0.017 -0.226,-0.053l-46.814,-23.407c-0.17,-0.085 -0.277,-0.259 -0.277,-0.45c0,-0.19 0.107,-0.364 0.277,-0.449l46.814,-23.407c0.142,-0.071 0.309,-0.071 0.451,0l46.814,23.407c0.17,0.085 0.278,0.259 0.278,0.449c0,0.191 -0.108,0.365 -0.278,0.45l-46.814,23.407c-0.071,0.036 -0.148,0.053 -0.225,0.053" style="fill-rule:nonzero;"/><path d="M88.903,712.797l0,11.703l-35.111,17.556l-11.703,-5.852l46.814,-23.407Z" style="fill-rule:nonzero;"/><path d="M43.212,736.204l10.58,5.291l34.608,-17.306l0,-10.578l-45.188,22.593Zm10.58,6.355c-0.078,0 -0.155,-0.018 -0.225,-0.053l-11.704,-5.852c-0.17,-0.085 -0.277,-0.259 -0.277,-0.45c0,-0.19 0.107,-0.364 0.277,-0.449l46.814,-23.407c0.157,-0.078 0.341,-0.07 0.49,0.022c0.148,0.091 0.239,0.253 0.239,0.427l0,11.703c0,0.191 -0.108,0.365 -0.278,0.451l-35.111,17.555c-0.071,0.035 -0.148,0.053 -0.225,0.053" style="fill-rule:nonzero;"/><path d="M88.903,724.5l35.111,17.556l11.703,-5.852l-46.814,-23.408l0,11.703Z" style="fill:#fff;fill-rule:nonzero;"/><path d="M89.406,724.189l34.608,17.306l10.58,-5.291l-45.188,-22.593l0,10.578Zm34.608,18.371c-0.077,0 -0.154,-0.018 -0.225,-0.054l-35.112,-17.555c-0.169,-0.086 -0.277,-0.26 -0.277,-0.451l0,-11.703c0,-0.174 0.09,-0.336 0.239,-0.427c0.148,-0.092 0.332,-0.1 0.489,-0.022l46.814,23.407c0.171,0.085 0.278,0.259 0.278,0.449c0,0.192 -0.107,0.365 -0.278,0.45l-11.703,5.852c-0.071,0.036 -0.147,0.054 -0.225,0.054" style="fill-rule:nonzero;"/><path d="M65.496,736.204l23.407,-11.704l23.407,11.704l-23.407,11.704l-23.407,-11.704Z" style="fill:#fff;fill-rule:nonzero;"/><path d="M66.62,736.204l22.283,11.143l22.282,-11.143l-22.282,-11.141l-22.283,11.141Zm22.283,12.208c-0.077,0 -0.155,-0.019 -0.226,-0.054l-23.407,-11.704c-0.171,-0.085 -0.277,-0.259 -0.277,-0.45c0,-0.19 0.106,-0.364 0.277,-0.449l23.407,-11.704c0.142,-0.071 0.309,-0.071 0.45,0l23.407,11.704c0.171,0.085 0.278,0.259 0.278,0.449c0,0.191 -0.107,0.365 -0.278,0.45l-23.407,11.704c-0.07,0.035 -0.148,0.054 -0.224,0.054" style="fill-rule:nonzero;"/><path d="M65.496,736.204l0,11.704l23.407,11.703l0,-11.703l-23.407,-11.704Z" style="fill:#fff;fill-rule:nonzero;"/><path d="M65.999,747.597l22.401,11.201l0,-10.579l-22.401,-11.202l0,10.58Zm22.904,12.517c-0.077,0 -0.154,-0.018 -0.225,-0.053l-23.407,-11.703c-0.171,-0.085 -0.278,-0.259 -0.278,-0.45l0,-11.705c0,-0.173 0.09,-0.335 0.238,-0.427c0.149,-0.091 0.335,-0.1 0.49,-0.022l23.407,11.705c0.17,0.085 0.278,0.259 0.278,0.449l0,11.703c0,0.174 -0.091,0.336 -0.239,0.428c-0.081,0.049 -0.171,0.075 -0.264,0.075" style="fill-rule:nonzero;"/><path d="M112.31,736.204l0,11.704l-23.407,11.703l0,-11.703l23.407,-11.704Z" style="fill-rule:nonzero;"/><path d="M89.406,748.219l0,10.579l22.401,-11.201l0,-10.58l-22.401,11.202Zm-0.503,11.895c-0.092,0 -0.184,-0.026 -0.264,-0.075c-0.149,-0.092 -0.239,-0.254 -0.239,-0.428l0,-11.704c0,-0.189 0.108,-0.363 0.277,-0.448l23.408,-11.705c0.156,-0.078 0.341,-0.069 0.489,0.022c0.148,0.092 0.239,0.254 0.239,0.427l0,11.704c0,0.192 -0.107,0.366 -0.279,0.451l-23.406,11.703c-0.071,0.035 -0.148,0.053 -0.225,0.053" style="fill-rule:nonzero;"/></g><g opacity="0.28"><path d="M43.094,519.096l0,23.406l46.814,-23.406l0,-23.408l-46.814,23.408Z" style="fill-rule:nonzero;"/><path d="M43.597,519.407l0,22.281l45.809,-22.903l0,-22.284l-45.809,22.906Zm-0.503,23.598c-0.092,0 -0.184,-0.026 -0.265,-0.076c-0.148,-0.09 -0.238,-0.252 -0.238,-0.427l0,-23.407c0,-0.19 0.108,-0.364 0.278,-0.449l46.815,-23.409c0.155,-0.077 0.341,-0.069 0.489,0.023c0.148,0.091 0.238,0.253 0.238,0.427l0,23.408c0,0.192 -0.107,0.366 -0.277,0.45l-46.815,23.407c-0.071,0.035 -0.148,0.053 -0.225,0.053" style="fill-rule:nonzero;"/><path d="M136.723,519.096l0,23.406l-46.814,-23.406l0,-23.408l46.814,23.408Z" style="fill:#fff;fill-rule:nonzero;"/><path d="M90.412,518.785l45.809,22.903l0,-22.281l-45.809,-22.906l0,22.284Zm46.312,24.22c-0.077,0 -0.154,-0.018 -0.225,-0.053l-46.815,-23.407c-0.17,-0.084 -0.278,-0.258 -0.278,-0.449l0,-23.409c0,-0.173 0.091,-0.336 0.239,-0.427c0.148,-0.092 0.333,-0.1 0.489,-0.023l46.815,23.409c0.17,0.085 0.277,0.259 0.277,0.45l0,23.406c0,0.175 -0.09,0.337 -0.237,0.428c-0.081,0.049 -0.173,0.075 -0.265,0.075" style="fill-rule:nonzero;"/><path d="M66.502,560.058l0,23.408l23.407,11.703l0,-23.407l-23.407,-11.704Z" style="fill:#fff;fill-rule:nonzero;"/><path d="M67.004,583.155l22.401,11.199l0,-22.281l-22.401,-11.202l0,22.284Zm22.904,12.517c-0.076,0 -0.154,-0.018 -0.224,-0.053l-23.408,-11.704c-0.17,-0.084 -0.278,-0.258 -0.278,-0.449l0,-23.409c0,-0.173 0.09,-0.336 0.239,-0.427c0.148,-0.092 0.333,-0.1 0.489,-0.023l23.407,11.705c0.171,0.085 0.278,0.259 0.278,0.449l0,23.408c0,0.174 -0.09,0.336 -0.239,0.427c-0.08,0.05 -0.172,0.076 -0.264,0.076" style="fill-rule:nonzero;"/><path d="M113.316,560.058l0,23.408l-23.407,11.703l0,-23.407l23.407,-11.704Z" style="fill-rule:nonzero;"/><path d="M90.412,572.073l0,22.281l22.401,-11.199l0,-22.284l-22.401,11.202Zm-0.503,23.599c-0.092,0 -0.184,-0.026 -0.264,-0.076c-0.148,-0.091 -0.239,-0.253 -0.239,-0.427l0,-23.408c0,-0.19 0.108,-0.364 0.278,-0.449l23.407,-11.705c0.155,-0.077 0.341,-0.069 0.489,0.023c0.149,0.091 0.239,0.254 0.239,0.427l0,23.409c0,0.191 -0.107,0.365 -0.278,0.449l-23.407,11.704c-0.071,0.035 -0.148,0.053 -0.225,0.053" style="fill-rule:nonzero;"/><path d="M48.946,557.132l40.963,-20.481l40.963,20.481l-40.963,20.481l-40.963,-20.481Zm40.963,-32.186l-58.518,29.259l58.518,29.261l58.518,-29.261l-58.518,-29.259Z" style="fill:#fff;fill-rule:nonzero;"/><path d="M50.07,557.132l39.838,19.919l39.839,-19.919l-39.839,-19.919l-39.838,19.919Zm39.838,20.984c-0.077,0 -0.154,-0.017 -0.224,-0.052l-40.964,-20.483c-0.17,-0.085 -0.277,-0.259 -0.277,-0.449c0,-0.19 0.107,-0.364 0.277,-0.45l40.964,-20.482c0.141,-0.07 0.308,-0.07 0.449,0l40.963,20.482c0.172,0.086 0.278,0.26 0.278,0.45c0,0.19 -0.106,0.364 -0.278,0.449l-40.963,20.483c-0.07,0.035 -0.147,0.052 -0.225,0.052m-57.393,-23.911l57.393,28.699l57.394,-28.699l-57.394,-28.696l-57.393,28.696Zm57.393,29.764c-0.077,0 -0.154,-0.018 -0.224,-0.054l-58.519,-29.26c-0.17,-0.085 -0.278,-0.259 -0.278,-0.45c0,-0.19 0.108,-0.363 0.278,-0.449l58.519,-29.26c0.141,-0.07 0.308,-0.07 0.449,0l58.519,29.26c0.169,0.086 0.277,0.259 0.277,0.449c0,0.191 -0.108,0.365 -0.277,0.45l-58.519,29.26c-0.07,0.036 -0.147,0.054 -0.225,0.054" style="fill-rule:nonzero;"/><path d="M31.391,554.205l0,5.853l58.518,29.258l0,-5.85l-58.518,-29.261Z" style="fill:#fff;fill-rule:nonzero;"/><path d="M31.894,559.747l57.512,28.756l0,-4.726l-57.512,-28.758l0,4.728Zm58.015,30.072c-0.077,0 -0.154,-0.017 -0.224,-0.052l-58.519,-29.26c-0.17,-0.085 -0.278,-0.258 -0.278,-0.449l0,-5.853c0,-0.174 0.09,-0.336 0.239,-0.428c0.148,-0.091 0.333,-0.099 0.489,-0.021l58.518,29.261c0.171,0.084 0.278,0.258 0.278,0.449l0,5.85c0,0.175 -0.09,0.336 -0.239,0.428c-0.08,0.05 -0.172,0.075 -0.264,0.075" style="fill-rule:nonzero;"/><path d="M148.427,554.205l0,5.853l-58.519,29.258l0,-5.85l58.519,-29.261Z" style="fill-rule:nonzero;"/><path d="M90.412,583.777l0,4.726l57.513,-28.756l0,-4.728l-57.513,28.758Zm-0.503,6.042c-0.092,0 -0.184,-0.025 -0.264,-0.075c-0.148,-0.092 -0.239,-0.253 -0.239,-0.428l0,-5.851c0,-0.19 0.108,-0.364 0.278,-0.449l58.519,-29.26c0.156,-0.079 0.34,-0.07 0.488,0.021c0.149,0.092 0.239,0.254 0.239,0.428l0,5.852c0,0.192 -0.108,0.365 -0.278,0.449l-58.518,29.26c-0.071,0.035 -0.148,0.053 -0.225,0.053" style="fill-rule:nonzero;"/><path d="M89.909,536.65l0,-5.852l-46.814,23.407l5.851,2.926l40.963,-20.481Z" style="fill-rule:nonzero;"/><path d="M44.218,554.205l4.728,2.364l40.46,-20.229l0,-4.727l-45.188,22.592Zm4.728,3.43c-0.078,0 -0.155,-0.018 -0.226,-0.054l-5.851,-2.926c-0.171,-0.085 -0.278,-0.26 -0.278,-0.45c0,-0.19 0.107,-0.363 0.278,-0.449l46.815,-23.407c0.155,-0.078 0.341,-0.07 0.489,0.022c0.148,0.091 0.238,0.254 0.238,0.428l0,5.851c0,0.192 -0.107,0.366 -0.277,0.451l-40.964,20.48c-0.07,0.036 -0.147,0.054 -0.224,0.054" style="fill-rule:nonzero;"/><path d="M130.872,557.132l5.852,-2.927l-46.815,-23.406l0,5.852l40.963,20.481Z" style="fill:#fff;fill-rule:nonzero;"/><path d="M90.412,536.34l40.46,20.229l4.728,-2.364l-45.188,-22.592l0,4.727Zm40.46,21.295c-0.077,0 -0.154,-0.018 -0.225,-0.054l-40.963,-20.48c-0.17,-0.085 -0.278,-0.259 -0.278,-0.45l0,-5.852c0,-0.174 0.091,-0.337 0.239,-0.428c0.148,-0.092 0.333,-0.099 0.489,-0.022l46.815,23.407c0.17,0.086 0.277,0.259 0.277,0.449c0,0.191 -0.107,0.365 -0.277,0.45l-5.852,2.926c-0.071,0.036 -0.147,0.054 -0.225,0.054" style="fill-rule:nonzero;"/><path d="M43.094,519.096l46.814,-23.408l46.815,23.408l-46.815,23.406l-46.814,-23.406Zm46.814,-29.261l-58.518,29.261l58.518,29.259l58.519,-29.259l-58.519,-29.261Z" style="fill:#fff;fill-rule:nonzero;"/><path d="M44.218,519.096l45.69,22.845l45.691,-22.845l-45.691,-22.846l-45.69,22.846Zm45.69,23.909c-0.077,0 -0.154,-0.017 -0.224,-0.053l-46.815,-23.407c-0.171,-0.084 -0.278,-0.258 -0.278,-0.449c0,-0.19 0.107,-0.364 0.278,-0.449l46.815,-23.409c0.141,-0.071 0.308,-0.071 0.45,0l46.814,23.409c0.17,0.085 0.277,0.259 0.277,0.449c0,0.191 -0.107,0.365 -0.277,0.449l-46.814,23.407c-0.071,0.036 -0.148,0.053 -0.226,0.053m-57.393,-23.909l57.393,28.696l57.394,-28.696l-57.394,-28.698l-57.393,28.698Zm57.393,29.762c-0.077,0 -0.154,-0.019 -0.224,-0.053l-58.519,-29.26c-0.17,-0.084 -0.278,-0.258 -0.278,-0.449c0,-0.19 0.108,-0.364 0.278,-0.449l58.519,-29.261c0.141,-0.07 0.308,-0.07 0.45,0l58.518,29.261c0.17,0.085 0.277,0.259 0.277,0.449c0,0.191 -0.107,0.365 -0.277,0.449l-58.518,29.26c-0.071,0.034 -0.148,0.053 -0.226,0.053" style="fill-rule:nonzero;"/><path d="M48.946,504.466l40.963,-20.482l40.963,20.482l-40.963,20.48l-40.963,-20.48Zm40.963,-32.186l-58.518,29.259l58.518,29.26l58.518,-29.26l-58.518,-29.259Z" style="fill:#fff;fill-rule:nonzero;"/><path d="M50.07,504.466l39.838,19.918l39.839,-19.918l-39.839,-19.92l-39.838,19.92Zm39.838,20.983c-0.077,0 -0.154,-0.017 -0.224,-0.052l-40.964,-20.482c-0.17,-0.085 -0.277,-0.259 -0.277,-0.449c0,-0.191 0.107,-0.365 0.277,-0.45l40.964,-20.482c0.141,-0.071 0.308,-0.071 0.449,0l40.963,20.482c0.172,0.085 0.278,0.259 0.278,0.45c0,0.19 -0.106,0.364 -0.278,0.449l-40.963,20.482c-0.07,0.035 -0.147,0.052 -0.225,0.052m-57.393,-23.91l57.393,28.698l57.394,-28.698l-57.394,-28.696l-57.393,28.696Zm57.393,29.763c-0.077,0 -0.154,-0.019 -0.224,-0.054l-58.519,-29.259c-0.17,-0.085 -0.278,-0.259 -0.278,-0.45c0,-0.19 0.108,-0.364 0.278,-0.449l58.519,-29.26c0.141,-0.07 0.308,-0.07 0.449,0l58.519,29.26c0.169,0.085 0.277,0.259 0.277,0.449c0,0.191 -0.108,0.365 -0.277,0.45l-58.519,29.259c-0.07,0.035 -0.147,0.054 -0.225,0.054" style="fill-rule:nonzero;"/><path d="M31.391,501.539l0,5.853l58.518,29.258l0,-5.851l-58.518,-29.26Z" style="fill:#fff;fill-rule:nonzero;"/><path d="M31.894,507.081l57.512,28.756l0,-4.728l-57.512,-28.756l0,4.728Zm58.015,30.072c-0.077,0 -0.154,-0.017 -0.224,-0.052l-58.519,-29.26c-0.17,-0.085 -0.278,-0.259 -0.278,-0.449l0,-5.853c0,-0.174 0.09,-0.336 0.239,-0.427c0.148,-0.092 0.333,-0.1 0.489,-0.022l58.518,29.259c0.171,0.085 0.278,0.259 0.278,0.45l0,5.851c0,0.175 -0.09,0.336 -0.239,0.428c-0.08,0.05 -0.172,0.075 -0.264,0.075" style="fill-rule:nonzero;"/><path d="M148.427,501.539l0,5.853l-58.519,29.258l0,-5.851l58.519,-29.26Z" style="fill-rule:nonzero;"/><path d="M90.412,531.109l0,4.728l57.513,-28.756l0,-4.728l-57.513,28.756Zm-0.503,6.044c-0.092,0 -0.184,-0.025 -0.264,-0.075c-0.148,-0.092 -0.239,-0.253 -0.239,-0.428l0,-5.852c0,-0.19 0.108,-0.365 0.278,-0.45l58.519,-29.259c0.156,-0.078 0.34,-0.069 0.488,0.023c0.149,0.091 0.239,0.253 0.239,0.427l0,5.852c0,0.191 -0.108,0.364 -0.278,0.449l-58.518,29.26c-0.071,0.035 -0.148,0.053 -0.225,0.053" style="fill-rule:nonzero;"/><path d="M89.909,483.983l0,-5.851l-46.814,23.407l5.851,2.926l40.963,-20.482Z" style="fill-rule:nonzero;"/><path d="M44.218,501.539l4.728,2.364l40.46,-20.23l0,-4.727l-45.188,22.593Zm4.728,3.43c-0.078,0 -0.155,-0.019 -0.226,-0.054l-5.851,-2.926c-0.171,-0.085 -0.278,-0.26 -0.278,-0.45c0,-0.19 0.107,-0.364 0.278,-0.449l46.815,-23.407c0.155,-0.078 0.341,-0.07 0.489,0.021c0.148,0.093 0.238,0.254 0.238,0.429l0,5.85c0,0.191 -0.107,0.367 -0.277,0.452l-40.964,20.48c-0.07,0.035 -0.147,0.054 -0.224,0.054" style="fill-rule:nonzero;"/><path d="M130.872,504.466l5.852,-2.927l-46.815,-23.406l0,5.851l40.963,20.482Z" style="fill:#fff;fill-rule:nonzero;"/><path d="M90.412,483.673l40.46,20.23l4.728,-2.364l-45.188,-22.593l0,4.727Zm40.46,21.296c-0.077,0 -0.154,-0.019 -0.225,-0.054l-40.963,-20.48c-0.17,-0.085 -0.278,-0.261 -0.278,-0.451l0,-5.851c0,-0.175 0.091,-0.336 0.239,-0.429c0.148,-0.091 0.333,-0.098 0.489,-0.021l46.815,23.407c0.17,0.085 0.277,0.259 0.277,0.449c0,0.191 -0.107,0.365 -0.277,0.45l-5.852,2.926c-0.071,0.035 -0.147,0.054 -0.225,0.054" style="fill-rule:nonzero;"/><path d="M66.502,478.133l23.407,-11.704l23.407,11.704l-23.407,11.702l-23.407,-11.702Z" style="fill:#fff;fill-rule:nonzero;"/><path d="M67.626,478.133l22.283,11.141l22.282,-11.141l-22.282,-11.142l-22.283,11.142Zm22.283,12.205c-0.077,0 -0.155,-0.017 -0.225,-0.053l-23.407,-11.703c-0.171,-0.086 -0.278,-0.259 -0.278,-0.449c0,-0.191 0.107,-0.365 0.278,-0.45l23.407,-11.704c0.141,-0.072 0.308,-0.072 0.45,0l23.407,11.704c0.17,0.085 0.278,0.259 0.278,0.45c0,0.19 -0.108,0.363 -0.278,0.449l-23.407,11.703c-0.071,0.036 -0.148,0.053 -0.225,0.053" style="fill-rule:nonzero;"/><path d="M66.502,478.133l0,35.11l23.407,11.703l0,-35.111l-23.407,-11.702Z" style="fill:#fff;fill-rule:nonzero;"/><path d="M67.004,512.933l22.401,11.2l0,-33.986l-22.401,-11.2l0,33.986Zm22.904,12.517c-0.076,0 -0.154,-0.018 -0.224,-0.053l-23.408,-11.703c-0.17,-0.086 -0.278,-0.26 -0.278,-0.45l0,-35.111c0,-0.175 0.09,-0.336 0.239,-0.429c0.148,-0.09 0.333,-0.098 0.489,-0.021l23.407,11.703c0.171,0.086 0.278,0.259 0.278,0.449l0,35.112c0,0.174 -0.09,0.336 -0.239,0.427c-0.08,0.05 -0.172,0.076 -0.264,0.076" style="fill-rule:nonzero;"/><path d="M113.316,478.133l0,35.11l-23.407,11.703l0,-35.111l23.407,-11.702Z" style="fill-rule:nonzero;"/><path d="M90.412,490.147l0,33.986l22.401,-11.201l0,-33.986l-22.401,11.2Zm-0.503,35.303c-0.092,0 -0.184,-0.026 -0.264,-0.075c-0.148,-0.091 -0.239,-0.253 -0.239,-0.428l0,-35.112c0,-0.19 0.108,-0.363 0.278,-0.449l23.407,-11.702c0.155,-0.077 0.341,-0.07 0.489,0.022c0.149,0.091 0.239,0.254 0.239,0.428l0,35.111c0,0.189 -0.107,0.363 -0.278,0.449l-23.407,11.704c-0.071,0.035 -0.148,0.053 -0.225,0.053" style="fill-rule:nonzero;"/><path d="M89.909,536.65l0,5.852l23.407,-11.704l0,-5.852l-23.407,11.704Z" style="fill-rule:nonzero;"/><path d="M90.412,536.961l0,4.728l22.401,-11.202l0,-4.727l-22.401,11.201Zm-0.503,6.044c-0.092,0 -0.184,-0.025 -0.264,-0.075c-0.148,-0.091 -0.239,-0.253 -0.239,-0.428l0,-5.852c0,-0.19 0.108,-0.364 0.278,-0.45l23.407,-11.704c0.155,-0.077 0.341,-0.069 0.489,0.023c0.149,0.091 0.239,0.254 0.239,0.427l0,5.853c0,0.19 -0.107,0.364 -0.278,0.449l-23.407,11.704c-0.071,0.035 -0.148,0.053 -0.225,0.053" style="fill-rule:nonzero;"/><path d="M66.502,524.946l0,5.853l23.407,11.703l0,-5.852l-23.407,-11.704Z" style="fill:#fff;fill-rule:nonzero;"/><path d="M67.004,530.487l22.401,11.201l0,-4.727l-22.401,-11.202l0,4.728Zm22.904,12.518c-0.076,0 -0.154,-0.018 -0.224,-0.053l-23.408,-11.704c-0.17,-0.085 -0.278,-0.259 -0.278,-0.449l0,-5.853c0,-0.174 0.09,-0.336 0.239,-0.428c0.148,-0.092 0.333,-0.099 0.489,-0.022l23.407,11.704c0.171,0.086 0.278,0.26 0.278,0.45l0,5.852c0,0.174 -0.09,0.337 -0.239,0.427c-0.08,0.05 -0.172,0.076 -0.264,0.076" style="fill-rule:nonzero;"/><path d="M66.502,542.502l0,5.853l23.407,11.703l0,-5.853l-23.407,-11.703Z" style="fill:#fff;fill-rule:nonzero;"/><path d="M67.004,548.043l22.401,11.201l0,-4.727l-22.401,-11.201l0,4.727Zm22.904,12.518c-0.076,0 -0.154,-0.018 -0.224,-0.054l-23.408,-11.702c-0.17,-0.085 -0.278,-0.261 -0.278,-0.45l0,-5.853c0,-0.174 0.09,-0.335 0.239,-0.428c0.148,-0.091 0.333,-0.099 0.489,-0.021l23.407,11.703c0.171,0.086 0.278,0.259 0.278,0.449l0,5.853c0,0.173 -0.09,0.336 -0.239,0.427c-0.08,0.05 -0.172,0.076 -0.264,0.076" style="fill-rule:nonzero;"/><path d="M148.427,519.096l0,23.406l-58.519,29.26l0,-23.407l58.519,-29.259Z" style="fill-rule:nonzero;"/><path d="M90.412,548.665l0,22.282l57.513,-28.756l0,-22.281l-57.513,28.755Zm-0.503,23.6c-0.092,0 -0.184,-0.026 -0.264,-0.076c-0.148,-0.091 -0.239,-0.253 -0.239,-0.427l0,-23.408c0,-0.19 0.108,-0.365 0.278,-0.45l58.519,-29.258c0.156,-0.078 0.34,-0.069 0.488,0.023c0.149,0.091 0.239,0.253 0.239,0.427l0,23.406c0,0.191 -0.108,0.364 -0.278,0.45l-58.518,29.259c-0.071,0.036 -0.148,0.054 -0.225,0.054" style="fill-rule:nonzero;"/><path d="M31.391,519.096l0,23.406l58.518,29.26l0,-23.407l-58.518,-29.259Z" style="fill:#fff;fill-rule:nonzero;"/><path d="M31.894,542.191l57.512,28.756l0,-22.282l-57.512,-28.755l0,22.281Zm58.015,30.073c-0.077,0 -0.154,-0.017 -0.224,-0.053l-58.519,-29.259c-0.17,-0.086 -0.278,-0.259 -0.278,-0.45l0,-23.407c0,-0.174 0.09,-0.336 0.239,-0.426c0.148,-0.092 0.333,-0.101 0.489,-0.023l58.518,29.258c0.171,0.085 0.278,0.26 0.278,0.45l0,23.407c0,0.174 -0.09,0.336 -0.239,0.428c-0.08,0.05 -0.172,0.075 -0.264,0.075" style="fill-rule:nonzero;"/></g><g opacity="0.28"><path d="M102.275,271.613l35.593,-17.796l11.864,5.933l-35.592,17.797l-11.865,-5.934Z" style="fill:#fff;fill-rule:nonzero;stroke:#000;stroke-width:2px;"/><path d="M114.14,289.411l35.592,-17.797l0,-11.864l-35.592,17.797l0,11.864Z" style="fill-rule:nonzero;stroke:#000;stroke-width:2px;"/><path d="M31.09,259.75l11.865,-5.933l23.728,11.865l-11.864,5.931l-23.729,-11.863Z" style="fill:#fff;fill-rule:nonzero;stroke:#000;stroke-width:2px;"/><path d="M90.412,330.935l-23.728,-11.864l23.728,-11.864l23.729,11.864l-23.729,11.864Z" style="fill:#fff;fill-rule:nonzero;stroke:#000;stroke-width:2px;"/><path d="M66.684,319.071l0,23.729l23.728,11.864l0,-23.729l-23.728,-11.864Z" style="fill:#fff;fill-rule:nonzero;stroke:#000;stroke-width:2px;"/><path d="M90.412,330.935l23.729,-11.864l0,23.729l-23.729,11.864l0,-23.729Z" style="fill-rule:nonzero;stroke:#000;stroke-width:2px;"/><path d="M54.819,295.342l11.865,-5.932l59.321,29.661l-11.865,5.932l-59.321,-29.661Z" style="fill:#fff;fill-rule:nonzero;stroke:#000;stroke-width:2px;"/><path d="M54.819,247.886l11.865,-5.933l59.321,29.66l-11.865,5.934l-59.321,-29.661Z" style="fill:#fff;fill-rule:nonzero;stroke:#000;stroke-width:2px;"/><path d="M66.684,301.274l11.865,-5.932l0,-23.729l-11.865,-5.931l0,35.592Z" style="fill-rule:nonzero;stroke:#000;stroke-width:2px;"/><path d="M114.14,277.547l11.865,-5.934l0,59.322l-11.865,5.932l0,-59.32Z" style="fill-rule:nonzero;stroke:#000;stroke-width:2px;"/><path d="M102.275,319.071l-35.592,-17.797l0,-35.592l35.592,17.797l0,35.592Zm11.865,-17.797l0,-11.863l0,-11.864l-59.322,-29.661l0,23.727l-23.728,-11.863l0,11.863l23.728,11.866l0,23.728l59.322,29.66l0,-11.863l0,-11.865l23.728,11.865l0,-11.865l-23.728,-11.865Z" style="fill:#fff;fill-rule:nonzero;stroke:#000;stroke-width:2px;"/><path d="M114.14,301.274l11.865,-5.932l23.727,11.865l-11.863,5.932l-23.729,-11.865Z" style="fill:#fff;fill-rule:nonzero;stroke:#000;stroke-width:2px;"/><path d="M137.869,325.003l11.864,-5.933l0,-11.863l-11.864,5.931l0,11.865Z" style="fill-rule:nonzero;stroke:#000;stroke-width:2px;"/><path d="M90.412,247.886l-23.728,-11.865l23.728,-11.864l23.729,11.864l-23.729,11.865Z" style="fill:#fff;fill-rule:nonzero;stroke:#000;stroke-width:2px;"/><path d="M66.684,236.021l0,23.729l23.728,11.863l0,-23.727l-23.728,-11.865Z" style="fill:#fff;fill-rule:nonzero;stroke:#000;stroke-width:2px;"/><path d="M90.412,247.886l23.729,-11.865l0,23.729l-23.729,11.863l0,-23.727Z" style="fill-rule:nonzero;stroke:#000;stroke-width:2px;"/><path d="M31.09,307.207l11.865,5.932l0,11.864l-11.865,-5.932l0,-11.864Z" style="fill:#fff;fill-rule:nonzero;stroke:#000;stroke-width:2px;"/><path d="M31.09,307.207l59.321,-29.66l11.864,5.931l-59.32,29.661l-11.865,-5.932Z" style="fill:#fff;fill-rule:nonzero;stroke:#000;stroke-width:2px;"/><path d="M42.955,325.003l59.32,-29.661l0,-11.864l-59.32,29.66l0,11.865Z" style="fill-rule:nonzero;stroke:#000;stroke-width:2px;"/></g><g opacity="0.28"><path d="M1452.89,554.239l58.518,-29.259l58.518,29.259l-58.518,29.261l-58.518,-29.261Z" style="fill:#fff;fill-rule:nonzero;"/><path d="M1454.02,554.239l57.394,28.698l57.393,-28.698l-57.393,-28.697l-57.394,28.697Zm57.394,29.764c-0.078,0 -0.155,-0.018 -0.225,-0.054l-58.519,-29.26c-0.171,-0.086 -0.278,-0.26 -0.278,-0.45c0,-0.191 0.107,-0.364 0.278,-0.45l58.519,-29.259c0.141,-0.071 0.309,-0.071 0.449,0l58.519,29.259c0.171,0.086 0.278,0.259 0.278,0.45c0,0.19 -0.107,0.364 -0.278,0.45l-58.519,29.26c-0.07,0.036 -0.147,0.054 -0.224,0.054" style="fill-rule:nonzero;"/><path d="M1488,484.017l23.407,-11.703l23.407,11.703l-23.407,11.704l-23.407,-11.704Z" style="fill:#fff;fill-rule:nonzero;"/><path d="M1489.13,484.017l22.283,11.142l22.283,-11.142l-22.283,-11.14l-22.283,11.14Zm22.283,12.207c-0.077,0 -0.154,-0.018 -0.224,-0.053l-23.408,-11.703c-0.171,-0.085 -0.278,-0.261 -0.278,-0.451c0,-0.19 0.107,-0.364 0.278,-0.449l23.408,-11.704c0.14,-0.071 0.308,-0.071 0.449,0l23.408,11.704c0.17,0.085 0.277,0.259 0.277,0.449c0,0.19 -0.107,0.366 -0.277,0.451l-23.408,11.703c-0.071,0.035 -0.148,0.053 -0.225,0.053" style="fill-rule:nonzero;"/><path d="M1499.71,472.314l11.703,5.852l11.703,-5.852l-11.703,-5.852l-11.703,5.852Z" style="fill:#fff;fill-rule:nonzero;"/><path d="M1500.83,472.314l10.579,5.29l10.58,-5.29l-10.58,-5.289l-10.579,5.289Zm10.579,6.355c-0.077,0 -0.154,-0.018 -0.225,-0.053l-11.704,-5.852c-0.17,-0.085 -0.277,-0.259 -0.277,-0.45c0,-0.19 0.107,-0.365 0.277,-0.45l11.704,-5.852c0.141,-0.071 0.309,-0.071 0.45,0l11.704,5.852c0.17,0.085 0.278,0.26 0.278,0.45c0,0.191 -0.108,0.365 -0.278,0.45l-11.704,5.852c-0.071,0.035 -0.148,0.053 -0.225,0.053" style="fill-rule:nonzero;"/><path d="M1499.71,472.314l0,11.703l11.703,5.852l0,-11.703l-11.703,-5.852Z" style="fill:#fff;fill-rule:nonzero;"/><path d="M1500.21,483.707l10.698,5.349l0,-10.579l-10.698,-5.349l0,10.579Zm11.201,6.666c-0.076,0 -0.154,-0.019 -0.224,-0.055l-11.705,-5.851c-0.169,-0.084 -0.277,-0.26 -0.277,-0.45l0,-11.704c0,-0.173 0.09,-0.336 0.238,-0.426c0.148,-0.094 0.333,-0.101 0.49,-0.023l11.703,5.853c0.171,0.084 0.278,0.259 0.278,0.449l0,11.703c0,0.175 -0.091,0.337 -0.239,0.428c-0.08,0.05 -0.172,0.076 -0.264,0.076" style="fill-rule:nonzero;"/><path d="M1511.41,489.869l11.703,-5.852l0,-11.703l-11.703,5.852l0,11.703Z" style="fill-rule:nonzero;"/><path d="M1511.91,478.477l0,10.579l10.698,-5.349l0,-10.579l-10.698,5.349Zm-0.503,11.896c-0.092,0 -0.184,-0.026 -0.264,-0.076c-0.148,-0.091 -0.239,-0.253 -0.239,-0.427l0,-11.704c0,-0.19 0.109,-0.364 0.278,-0.449l11.704,-5.852c0.156,-0.078 0.34,-0.071 0.49,0.022c0.147,0.091 0.238,0.253 0.238,0.427l0,11.704c0,0.19 -0.108,0.365 -0.278,0.45l-11.704,5.851c-0.071,0.035 -0.149,0.054 -0.225,0.054" style="fill-rule:nonzero;"/><path d="M1499.71,524.98l11.703,5.852l11.703,-5.852l-11.703,-5.85l-11.703,5.85Z" style="fill:#fff;fill-rule:nonzero;"/><path d="M1500.83,524.98l10.579,5.29l10.578,-5.29l-10.578,-5.288l-10.579,5.288Zm10.579,6.355c-0.077,0 -0.154,-0.018 -0.225,-0.053l-11.704,-5.852c-0.17,-0.085 -0.277,-0.26 -0.277,-0.45c0,-0.19 0.107,-0.365 0.277,-0.45l11.704,-5.85c0.141,-0.071 0.309,-0.071 0.45,0l11.704,5.85c0.17,0.085 0.278,0.26 0.278,0.45c0,0.19 -0.108,0.365 -0.278,0.45l-11.704,5.852c-0.071,0.035 -0.148,0.053 -0.225,0.053" style="fill-rule:nonzero;"/><path d="M1488,513.277l23.407,-11.704l23.407,11.704l-23.407,11.703l-23.407,-11.703Z" style="fill:#fff;fill-rule:nonzero;"/><path d="M1489.13,513.277l22.283,11.141l22.283,-11.141l-22.283,-11.141l-22.283,11.141Zm22.283,12.206c-0.077,0 -0.154,-0.018 -0.224,-0.053l-23.408,-11.703c-0.171,-0.085 -0.278,-0.26 -0.278,-0.45c0,-0.19 0.107,-0.364 0.278,-0.45l23.408,-11.704c0.14,-0.07 0.308,-0.07 0.449,0l23.408,11.704c0.17,0.086 0.277,0.26 0.277,0.45c0,0.19 -0.107,0.365 -0.277,0.45l-23.408,11.703c-0.071,0.035 -0.148,0.053 -0.225,0.053" style="fill-rule:nonzero;"/><path d="M1499.71,524.98l0,11.704l11.703,5.852l0,-11.704l-11.703,-5.852Z" style="fill:#fff;fill-rule:nonzero;"/><path d="M1500.21,536.373l10.698,5.349l0,-10.578l-10.698,-5.35l0,10.579Zm11.201,6.666c-0.076,0 -0.154,-0.018 -0.224,-0.053l-11.705,-5.852c-0.169,-0.085 -0.277,-0.259 -0.277,-0.45l0,-11.704c0,-0.174 0.09,-0.336 0.238,-0.428c0.148,-0.092 0.333,-0.099 0.49,-0.022l11.703,5.852c0.171,0.086 0.278,0.26 0.278,0.45l0,11.704c0,0.174 -0.091,0.336 -0.239,0.427c-0.08,0.051 -0.172,0.076 -0.264,0.076" style="fill-rule:nonzero;"/><path d="M1511.41,542.536l11.703,-5.852l0,-11.704l-11.703,5.852l0,11.704Z" style="fill:#fff;fill-rule:nonzero;"/><path d="M1511.91,531.144l0,10.579l10.698,-5.35l0,-10.579l-10.698,5.35Zm-0.503,11.896c-0.092,0 -0.184,-0.026 -0.264,-0.076c-0.148,-0.091 -0.239,-0.253 -0.239,-0.427l0,-11.705c0,-0.19 0.109,-0.364 0.278,-0.449l11.704,-5.852c0.156,-0.078 0.34,-0.071 0.49,0.022c0.147,0.091 0.238,0.253 0.238,0.427l0,11.705c0,0.19 -0.108,0.364 -0.278,0.449l-11.704,5.852c-0.071,0.035 -0.149,0.054 -0.225,0.054" style="fill-rule:nonzero;"/><path d="M1488,484.017l0,23.408l23.407,11.705l0,-23.409l-23.407,-11.704Z" style="fill:#fff;fill-rule:nonzero;"/><path d="M1488.51,507.114l22.401,11.202l0,-22.285l-22.401,-11.2l0,22.283Zm22.904,12.518c-0.076,0 -0.154,-0.018 -0.224,-0.053l-23.408,-11.704c-0.17,-0.086 -0.278,-0.26 -0.278,-0.45l0,-23.408c0,-0.174 0.09,-0.336 0.238,-0.427c0.149,-0.092 0.334,-0.1 0.491,-0.022l23.406,11.703c0.171,0.085 0.278,0.26 0.278,0.45l0,23.409c0,0.174 -0.091,0.336 -0.239,0.427c-0.08,0.051 -0.172,0.075 -0.264,0.075" style="fill-rule:nonzero;"/><path d="M1534.82,484.017l0,23.408l-23.407,11.705l0,-23.409l23.407,-11.704Z" style="fill-rule:nonzero;"/><path d="M1511.91,496.032l0,22.284l22.401,-11.201l0,-22.283l-22.401,11.2Zm-0.503,23.601c-0.092,0 -0.184,-0.025 -0.264,-0.076c-0.148,-0.091 -0.239,-0.253 -0.239,-0.427l0,-23.409c0,-0.19 0.109,-0.364 0.278,-0.45l23.407,-11.703c0.156,-0.077 0.342,-0.069 0.49,0.022c0.148,0.091 0.238,0.254 0.238,0.427l0,23.408c0,0.19 -0.107,0.365 -0.277,0.45l-23.408,11.704c-0.071,0.036 -0.149,0.054 -0.225,0.054" style="fill-rule:nonzero;"/><path d="M1488,513.277l0,11.703l23.407,11.704l0,-11.704l-23.407,-11.703Z" style="fill:#fff;fill-rule:nonzero;"/><path d="M1488.51,524.669l22.401,11.201l0,-10.579l-22.401,-11.201l0,10.579Zm22.904,12.518c-0.076,0 -0.154,-0.018 -0.224,-0.054l-23.408,-11.704c-0.17,-0.085 -0.278,-0.259 -0.278,-0.449l0,-11.704c0,-0.173 0.09,-0.335 0.238,-0.427c0.149,-0.092 0.334,-0.099 0.491,-0.022l23.406,11.703c0.171,0.085 0.278,0.259 0.278,0.45l0,11.704c0,0.174 -0.091,0.336 -0.239,0.427c-0.08,0.05 -0.172,0.076 -0.264,0.076" style="fill-rule:nonzero;"/><path d="M1534.82,513.277l-23.407,11.703l0,11.704l23.407,-11.704l0,-11.703Z" style="fill:#fff;fill-rule:nonzero;"/><path d="M1511.91,525.291l0,10.579l22.401,-11.201l0,-10.578l-22.401,11.2Zm-0.503,11.896c-0.092,0 -0.184,-0.025 -0.264,-0.075c-0.148,-0.092 -0.239,-0.254 -0.239,-0.428l0,-11.704c0,-0.19 0.109,-0.365 0.278,-0.45l23.407,-11.703c0.156,-0.077 0.342,-0.069 0.49,0.023c0.148,0.091 0.238,0.253 0.238,0.427l0,11.703c0,0.19 -0.107,0.365 -0.277,0.45l-23.408,11.704c-0.071,0.035 -0.149,0.053 -0.225,0.053" style="fill-rule:nonzero;"/><path d="M1452.89,501.573l23.406,-11.704l23.408,11.704l-23.408,11.704l-23.406,-11.704Z" style="fill:#fff;fill-rule:nonzero;"/><path d="M1454.02,501.573l22.282,11.142l22.283,-11.142l-22.283,-11.142l-22.282,11.142Zm22.282,12.207c-0.076,0 -0.154,-0.018 -0.224,-0.053l-23.408,-11.704c-0.171,-0.085 -0.278,-0.26 -0.278,-0.45c0,-0.191 0.107,-0.365 0.278,-0.45l23.408,-11.704c0.141,-0.071 0.308,-0.071 0.449,0l23.408,11.704c0.17,0.085 0.277,0.259 0.277,0.45c0,0.19 -0.107,0.365 -0.277,0.45l-23.408,11.704c-0.07,0.035 -0.148,0.053 -0.225,0.053" style="fill-rule:nonzero;"/><path d="M1464.6,489.869l11.703,5.852l11.704,-5.852l-11.704,-5.852l-11.703,5.852Z" style="fill:#fff;fill-rule:nonzero;"/><path d="M1465.72,489.869l10.579,5.29l10.58,-5.29l-10.58,-5.289l-10.579,5.289Zm10.579,6.355c-0.076,0 -0.154,-0.018 -0.225,-0.053l-11.703,-5.852c-0.171,-0.086 -0.278,-0.26 -0.278,-0.45c0,-0.191 0.107,-0.364 0.278,-0.45l11.703,-5.851c0.142,-0.072 0.309,-0.072 0.45,0l11.705,5.851c0.17,0.086 0.277,0.259 0.277,0.45c0,0.19 -0.107,0.364 -0.277,0.45l-11.705,5.852c-0.071,0.035 -0.148,0.053 -0.225,0.053" style="fill-rule:nonzero;"/><path d="M1464.6,489.869l0,11.704l11.703,5.852l0,-11.704l-11.703,-5.852Z" style="fill:#fff;fill-rule:nonzero;"/><path d="M1465.1,501.262l10.698,5.349l0,-10.579l-10.698,-5.35l0,10.58Zm11.2,6.666c-0.076,0 -0.154,-0.018 -0.224,-0.053l-11.704,-5.852c-0.17,-0.085 -0.278,-0.26 -0.278,-0.45l0,-11.704c0,-0.174 0.091,-0.336 0.238,-0.428c0.148,-0.091 0.334,-0.1 0.49,-0.022l11.703,5.852c0.171,0.085 0.279,0.26 0.279,0.45l0,11.704c0,0.174 -0.091,0.336 -0.239,0.427c-0.081,0.05 -0.173,0.076 -0.265,0.076" style="fill-rule:nonzero;"/><path d="M1476.3,507.425l11.704,-5.852l0,-11.704l-11.704,5.852l0,11.704Z" style="fill-rule:nonzero;"/><path d="M1476.8,496.032l0,10.58l10.697,-5.35l0,-10.579l-10.697,5.349Zm-0.504,11.896c-0.092,0 -0.183,-0.025 -0.264,-0.075c-0.148,-0.092 -0.238,-0.253 -0.238,-0.428l0,-11.704c0,-0.19 0.108,-0.364 0.277,-0.45l11.705,-5.852c0.156,-0.078 0.34,-0.069 0.489,0.023c0.148,0.091 0.238,0.253 0.238,0.427l0,11.705c0,0.19 -0.107,0.364 -0.277,0.449l-11.705,5.852c-0.071,0.035 -0.149,0.053 -0.225,0.053" style="fill-rule:nonzero;"/><path d="M1464.6,542.536l11.703,5.852l11.704,-5.852l-11.704,-5.852l-11.703,5.852Z" style="fill:#fff;fill-rule:nonzero;"/><path d="M1465.72,542.536l10.579,5.289l10.58,-5.289l-10.58,-5.289l-10.579,5.289Zm10.579,6.354c-0.076,0 -0.154,-0.018 -0.225,-0.052l-11.703,-5.852c-0.171,-0.086 -0.278,-0.259 -0.278,-0.45c0,-0.19 0.107,-0.364 0.278,-0.449l11.703,-5.853c0.142,-0.071 0.309,-0.071 0.45,0l11.705,5.853c0.17,0.085 0.277,0.259 0.277,0.449c0,0.191 -0.107,0.364 -0.277,0.45l-11.705,5.852c-0.071,0.034 -0.148,0.052 -0.225,0.052" style="fill-rule:nonzero;"/><path d="M1452.89,530.832l23.406,-11.702l23.408,11.702l-23.408,11.704l-23.406,-11.704Z" style="fill:#fff;fill-rule:nonzero;"/><path d="M1454.02,530.832l22.282,11.142l22.283,-11.142l-22.283,-11.14l-22.282,11.14Zm22.282,12.207c-0.076,0 -0.154,-0.018 -0.224,-0.053l-23.408,-11.704c-0.171,-0.086 -0.278,-0.259 -0.278,-0.45c0,-0.19 0.107,-0.364 0.278,-0.45l23.408,-11.702c0.141,-0.071 0.308,-0.071 0.449,0l23.408,11.702c0.17,0.086 0.277,0.26 0.277,0.45c0,0.191 -0.107,0.364 -0.277,0.45l-23.408,11.704c-0.07,0.035 -0.148,0.053 -0.225,0.053" style="fill-rule:nonzero;"/><path d="M1464.6,542.536l0,11.703l11.703,5.852l0,-11.703l-11.703,-5.852Z" style="fill:#fff;fill-rule:nonzero;"/><path d="M1465.1,553.928l10.698,5.349l0,-10.579l-10.698,-5.349l0,10.579Zm11.2,6.666c-0.076,0 -0.154,-0.018 -0.224,-0.053l-11.704,-5.852c-0.17,-0.086 -0.278,-0.26 -0.278,-0.45l0,-11.703c0,-0.174 0.09,-0.336 0.238,-0.428c0.148,-0.092 0.334,-0.099 0.49,-0.021l11.703,5.851c0.171,0.085 0.279,0.259 0.279,0.449l0,11.704c0,0.174 -0.091,0.336 -0.239,0.428c-0.081,0.05 -0.173,0.075 -0.265,0.075" style="fill-rule:nonzero;"/><path d="M1476.3,560.091l11.704,-5.852l0,-11.703l-11.704,5.852l0,11.703Z" style="fill-rule:nonzero;"/><path d="M1476.8,548.698l0,10.579l10.697,-5.349l0,-10.579l-10.697,5.349Zm-0.504,11.896c-0.092,0 -0.183,-0.025 -0.264,-0.075c-0.148,-0.092 -0.238,-0.254 -0.238,-0.428l0,-11.704c0,-0.19 0.108,-0.364 0.277,-0.449l11.705,-5.851c0.156,-0.078 0.34,-0.071 0.489,0.021c0.148,0.092 0.238,0.254 0.238,0.428l0,11.703c0,0.19 -0.107,0.364 -0.277,0.45l-11.705,5.852c-0.071,0.035 -0.149,0.053 -0.225,0.053" style="fill-rule:nonzero;"/><path d="M1452.89,501.573l0,23.407l23.406,11.704l0,-23.407l-23.406,-11.704Z" style="fill:#fff;fill-rule:nonzero;"/><path d="M1453.4,524.669l22.402,11.201l0,-22.283l-22.402,-11.2l0,22.282Zm22.904,12.518c-0.076,0 -0.154,-0.018 -0.224,-0.054l-23.409,-11.704c-0.169,-0.085 -0.277,-0.259 -0.277,-0.449l0,-23.407c0,-0.174 0.091,-0.336 0.239,-0.427c0.148,-0.093 0.333,-0.101 0.49,-0.023l23.406,11.704c0.171,0.085 0.279,0.259 0.279,0.449l0,23.408c0,0.174 -0.091,0.336 -0.239,0.427c-0.081,0.05 -0.173,0.076 -0.265,0.076" style="fill-rule:nonzero;"/><path d="M1499.71,501.573l0,23.407l-23.408,11.704l0,-23.407l23.408,-11.704Z" style="fill-rule:nonzero;"/><path d="M1476.8,513.588l0,22.282l22.401,-11.2l0,-22.283l-22.401,11.201Zm-0.504,23.599c-0.092,0 -0.183,-0.025 -0.264,-0.075c-0.148,-0.092 -0.238,-0.253 -0.238,-0.428l0,-23.407c0,-0.19 0.108,-0.364 0.277,-0.45l23.408,-11.704c0.155,-0.077 0.341,-0.069 0.49,0.023c0.147,0.091 0.237,0.254 0.237,0.427l0,23.407c0,0.191 -0.107,0.365 -0.277,0.45l-23.408,11.704c-0.071,0.035 -0.149,0.053 -0.225,0.053" style="fill-rule:nonzero;"/><path d="M1452.89,530.832l0,11.704l23.406,11.703l0,-11.703l-23.406,-11.704Z" style="fill:#fff;fill-rule:nonzero;"/><path d="M1453.4,542.225l22.402,11.2l0,-10.578l-22.402,-11.201l0,10.579Zm22.904,12.517c-0.076,0 -0.154,-0.017 -0.224,-0.053l-23.409,-11.703c-0.169,-0.086 -0.277,-0.259 -0.277,-0.45l0,-11.704c0,-0.174 0.091,-0.336 0.239,-0.428c0.148,-0.092 0.333,-0.099 0.49,-0.022l23.406,11.705c0.171,0.085 0.279,0.259 0.279,0.449l0,11.703c0,0.174 -0.091,0.336 -0.239,0.428c-0.081,0.05 -0.173,0.075 -0.265,0.075" style="fill-rule:nonzero;"/><path d="M1499.71,530.832l-23.408,11.704l0,11.703l23.408,-11.703l0,-11.704Z" style="fill-rule:nonzero;"/><path d="M1476.8,542.847l0,10.578l22.401,-11.2l0,-10.579l-22.401,11.201Zm-0.504,11.895c-0.092,0 -0.183,-0.025 -0.264,-0.075c-0.148,-0.092 -0.238,-0.254 -0.238,-0.428l0,-11.703c0,-0.19 0.108,-0.364 0.277,-0.449l23.408,-11.705c0.155,-0.077 0.341,-0.07 0.49,0.022c0.147,0.092 0.237,0.254 0.237,0.428l0,11.704c0,0.191 -0.107,0.364 -0.277,0.45l-23.408,11.703c-0.071,0.035 -0.149,0.053 -0.225,0.053" style="fill-rule:nonzero;"/><path d="M1523.11,501.573l23.408,-11.704l23.407,11.704l-23.407,11.704l-23.408,-11.704Z" style="fill:#fff;fill-rule:nonzero;"/><path d="M1524.24,501.573l22.283,11.142l22.282,-11.142l-22.282,-11.142l-22.283,11.142Zm22.283,12.207c-0.077,0 -0.154,-0.018 -0.224,-0.053l-23.409,-11.704c-0.17,-0.085 -0.277,-0.26 -0.277,-0.45c0,-0.191 0.107,-0.365 0.277,-0.45l23.409,-11.704c0.14,-0.071 0.308,-0.071 0.449,0l23.407,11.704c0.171,0.085 0.278,0.259 0.278,0.45c0,0.19 -0.107,0.365 -0.278,0.45l-23.407,11.704c-0.071,0.035 -0.149,0.053 -0.225,0.053" style="fill-rule:nonzero;"/><path d="M1534.82,489.869l11.704,5.852l11.703,-5.852l-11.703,-5.852l-11.704,5.852Z" style="fill:#fff;fill-rule:nonzero;"/><path d="M1535.94,489.869l10.58,5.29l10.579,-5.29l-10.579,-5.289l-10.58,5.289Zm10.58,6.355c-0.077,0 -0.154,-0.018 -0.225,-0.053l-11.705,-5.852c-0.17,-0.086 -0.277,-0.26 -0.277,-0.45c0,-0.191 0.107,-0.364 0.277,-0.45l11.705,-5.851c0.141,-0.072 0.309,-0.072 0.45,0l11.703,5.851c0.171,0.086 0.279,0.259 0.279,0.45c0,0.19 -0.108,0.364 -0.279,0.45l-11.703,5.852c-0.071,0.035 -0.149,0.053 -0.225,0.053" style="fill-rule:nonzero;"/><path d="M1534.82,489.869l0,11.704l11.704,5.852l0,-11.704l-11.704,-5.852Z" style="fill:#fff;fill-rule:nonzero;"/><path d="M1535.32,501.262l10.697,5.349l0,-10.579l-10.697,-5.35l0,10.58Zm11.201,6.666c-0.076,0 -0.154,-0.018 -0.224,-0.053l-11.706,-5.852c-0.169,-0.085 -0.277,-0.26 -0.277,-0.45l0,-11.704c0,-0.174 0.09,-0.336 0.238,-0.428c0.149,-0.091 0.334,-0.1 0.491,-0.022l11.703,5.852c0.17,0.085 0.277,0.26 0.277,0.45l0,11.704c0,0.174 -0.09,0.336 -0.238,0.427c-0.08,0.05 -0.172,0.076 -0.264,0.076" style="fill-rule:nonzero;"/><path d="M1546.52,507.425l11.703,-5.852l0,-11.704l-11.704,5.852l0,11.704Z" style="fill-rule:nonzero;"/><path d="M1547.02,496.032l0,10.58l10.698,-5.35l0,-10.579l-10.698,5.349Zm-0.502,11.896c-0.092,0 -0.184,-0.025 -0.264,-0.075c-0.148,-0.092 -0.24,-0.253 -0.24,-0.428l0,-11.704c0,-0.19 0.109,-0.364 0.279,-0.45l11.704,-5.852c0.156,-0.078 0.34,-0.069 0.489,0.023c0.147,0.091 0.239,0.253 0.239,0.427l0,11.705c0,0.19 -0.108,0.364 -0.279,0.449l-11.703,5.852c-0.071,0.035 -0.149,0.053 -0.225,0.053" style="fill-rule:nonzero;"/><path d="M1534.82,542.536l11.704,5.852l11.703,-5.852l-11.703,-5.852l-11.704,5.852Z" style="fill:#fff;fill-rule:nonzero;"/><path d="M1535.94,542.536l10.58,5.289l10.579,-5.289l-10.579,-5.289l-10.58,5.289Zm10.58,6.354c-0.077,0 -0.154,-0.018 -0.225,-0.052l-11.705,-5.852c-0.17,-0.086 -0.277,-0.259 -0.277,-0.45c0,-0.19 0.107,-0.364 0.277,-0.449l11.705,-5.853c0.141,-0.071 0.309,-0.071 0.45,0l11.703,5.853c0.171,0.085 0.279,0.259 0.279,0.449c0,0.191 -0.108,0.364 -0.279,0.45l-11.703,5.852c-0.071,0.034 -0.149,0.052 -0.225,0.052" style="fill-rule:nonzero;"/><path d="M1523.11,530.832l23.408,-11.702l23.407,11.702l-23.407,11.704l-23.408,-11.704Z" style="fill:#fff;fill-rule:nonzero;"/><path d="M1524.24,530.832l22.283,11.142l22.282,-11.142l-22.282,-11.14l-22.283,11.14Zm22.283,12.207c-0.077,0 -0.154,-0.018 -0.224,-0.053l-23.409,-11.704c-0.17,-0.086 -0.277,-0.259 -0.277,-0.45c0,-0.19 0.107,-0.364 0.277,-0.45l23.409,-11.702c0.14,-0.071 0.308,-0.071 0.449,0l23.407,11.702c0.171,0.086 0.278,0.26 0.278,0.45c0,0.191 -0.107,0.364 -0.278,0.45l-23.407,11.704c-0.071,0.035 -0.149,0.053 -0.225,0.053" style="fill-rule:nonzero;"/><path d="M1534.82,542.536l0,11.703l11.704,5.852l0,-11.703l-11.704,-5.852Z" style="fill:#fff;fill-rule:nonzero;"/><path d="M1535.32,553.928l10.697,5.349l0,-10.579l-10.697,-5.349l0,10.579Zm11.201,6.666c-0.076,0 -0.154,-0.018 -0.224,-0.053l-11.706,-5.852c-0.169,-0.086 -0.277,-0.26 -0.277,-0.45l0,-11.703c0,-0.174 0.09,-0.336 0.238,-0.428c0.149,-0.092 0.334,-0.099 0.491,-0.021l11.703,5.851c0.17,0.085 0.277,0.259 0.277,0.449l0,11.704c0,0.174 -0.09,0.336 -0.238,0.428c-0.08,0.05 -0.172,0.075 -0.264,0.075" style="fill-rule:nonzero;"/><path d="M1546.52,560.091l11.702,-5.852l0,-11.703l-11.703,5.852l0,11.703Z" style="fill-rule:nonzero;"/><path d="M1547.02,548.698l0,10.579l10.698,-5.349l0,-10.579l-10.698,5.349Zm-0.502,11.896c-0.092,0 -0.184,-0.025 -0.264,-0.075c-0.148,-0.092 -0.24,-0.254 -0.24,-0.428l0,-11.704c0,-0.19 0.109,-0.364 0.279,-0.449l11.704,-5.851c0.156,-0.078 0.34,-0.071 0.489,0.021c0.148,0.092 0.239,0.254 0.239,0.428l0,11.703c0,0.19 -0.108,0.364 -0.279,0.45l-11.703,5.852c-0.071,0.035 -0.149,0.053 -0.225,0.053" style="fill-rule:nonzero;"/><path d="M1523.11,501.573l0,23.407l23.408,11.704l0,-23.407l-23.408,-11.704Z" style="fill:#fff;fill-rule:nonzero;"/><path d="M1523.62,524.669l22.4,11.201l0,-22.283l-22.4,-11.2l0,22.282Zm22.904,12.518c-0.076,0 -0.154,-0.018 -0.224,-0.054l-23.409,-11.704c-0.169,-0.085 -0.277,-0.259 -0.277,-0.449l0,-23.407c0,-0.174 0.09,-0.336 0.237,-0.427c0.15,-0.093 0.335,-0.101 0.491,-0.023l23.407,11.704c0.17,0.085 0.277,0.259 0.277,0.449l0,23.408c0,0.174 -0.09,0.336 -0.238,0.427c-0.08,0.05 -0.172,0.076 -0.264,0.076" style="fill-rule:nonzero;"/><path d="M1569.93,501.573l0,23.407l-23.407,11.704l0,-23.407l23.407,-11.704Z" style="fill-rule:nonzero;"/><path d="M1547.02,513.588l0,22.282l22.402,-11.2l0,-22.283l-22.402,11.201Zm-0.502,23.599c-0.092,0 -0.184,-0.025 -0.264,-0.075c-0.148,-0.092 -0.24,-0.253 -0.24,-0.428l0,-23.407c0,-0.19 0.109,-0.364 0.279,-0.45l23.407,-11.704c0.156,-0.077 0.341,-0.069 0.489,0.023c0.148,0.091 0.239,0.254 0.239,0.427l0,23.407c0,0.191 -0.107,0.365 -0.278,0.45l-23.407,11.704c-0.071,0.035 -0.149,0.053 -0.225,0.053" style="fill-rule:nonzero;"/><path d="M1523.11,530.832l0,11.704l23.408,11.703l0,-11.703l-23.408,-11.704Z" style="fill:#fff;fill-rule:nonzero;"/><path d="M1523.62,542.225l22.4,11.2l0,-10.578l-22.4,-11.201l0,10.579Zm22.904,12.517c-0.076,0 -0.154,-0.017 -0.224,-0.053l-23.409,-11.703c-0.169,-0.086 -0.277,-0.259 -0.277,-0.45l0,-11.704c0,-0.174 0.09,-0.336 0.237,-0.428c0.15,-0.092 0.335,-0.099 0.491,-0.022l23.407,11.705c0.17,0.085 0.277,0.259 0.277,0.449l0,11.703c0,0.174 -0.09,0.336 -0.238,0.428c-0.08,0.05 -0.172,0.075 -0.264,0.075" style="fill-rule:nonzero;"/><path d="M1569.93,530.832l-23.407,11.704l0,11.703l23.407,-11.703l0,-11.704Z" style="fill-rule:nonzero;"/><path d="M1547.02,542.847l0,10.578l22.402,-11.2l0,-10.579l-22.402,11.201Zm-0.502,11.895c-0.092,0 -0.184,-0.025 -0.264,-0.075c-0.148,-0.092 -0.24,-0.254 -0.24,-0.428l0,-11.703c0,-0.19 0.109,-0.364 0.279,-0.449l23.407,-11.705c0.156,-0.077 0.341,-0.07 0.489,0.022c0.148,0.092 0.239,0.254 0.239,0.428l0,11.704c0,0.191 -0.107,0.364 -0.278,0.45l-23.407,11.703c-0.071,0.035 -0.149,0.053 -0.225,0.053" style="fill-rule:nonzero;"/><path d="M1488,519.13l23.407,-11.705l23.407,11.705l-23.407,11.702l-23.407,-11.702Z" style="fill:#fff;fill-rule:nonzero;"/><path d="M1489.13,519.13l22.283,11.14l22.283,-11.14l-22.283,-11.143l-22.283,11.143Zm22.283,12.205c-0.077,0 -0.154,-0.017 -0.224,-0.053l-23.408,-11.703c-0.171,-0.084 -0.278,-0.259 -0.278,-0.449c0,-0.191 0.107,-0.365 0.278,-0.45l23.408,-11.704c0.14,-0.071 0.308,-0.071 0.449,0l23.408,11.704c0.17,0.085 0.277,0.259 0.277,0.45c0,0.19 -0.107,0.365 -0.277,0.449l-23.408,11.703c-0.071,0.036 -0.148,0.053 -0.225,0.053" style="fill-rule:nonzero;"/><path d="M1499.71,507.425l11.703,5.852l11.703,-5.852l-11.703,-5.852l-11.703,5.852Z" style="fill:#fff;fill-rule:nonzero;"/><path d="M1500.83,507.425l10.579,5.29l10.58,-5.29l-10.58,-5.289l-10.579,5.289Zm10.579,6.355c-0.077,0 -0.154,-0.018 -0.225,-0.053l-11.704,-5.852c-0.17,-0.085 -0.277,-0.26 -0.277,-0.45c0,-0.19 0.107,-0.364 0.277,-0.449l11.704,-5.853c0.141,-0.07 0.309,-0.07 0.45,0l11.704,5.853c0.17,0.085 0.278,0.259 0.278,0.449c0,0.19 -0.108,0.365 -0.278,0.45l-11.704,5.852c-0.071,0.035 -0.148,0.053 -0.225,0.053" style="fill-rule:nonzero;"/><path d="M1499.71,507.425l0,11.705l11.703,5.85l0,-11.703l-11.703,-5.852Z" style="fill:#fff;fill-rule:nonzero;"/><path d="M1500.21,518.818l10.698,5.348l0,-10.578l-10.698,-5.349l0,10.579Zm11.201,6.665c-0.076,0 -0.154,-0.018 -0.224,-0.054l-11.705,-5.85c-0.169,-0.085 -0.277,-0.259 -0.277,-0.449l0,-11.706c0,-0.173 0.09,-0.335 0.238,-0.426c0.148,-0.093 0.333,-0.101 0.49,-0.023l11.703,5.852c0.171,0.085 0.278,0.259 0.278,0.449l0,11.704c0,0.174 -0.091,0.336 -0.239,0.427c-0.08,0.05 -0.172,0.076 -0.264,0.076" style="fill-rule:nonzero;"/><path d="M1511.41,524.98l11.703,-5.85l0,-11.705l-11.703,5.852l0,11.703Z" style="fill-rule:nonzero;"/><path d="M1511.91,513.588l0,10.578l10.698,-5.348l0,-10.579l-10.698,5.349Zm-0.503,11.895c-0.092,0 -0.184,-0.026 -0.264,-0.075c-0.148,-0.092 -0.239,-0.254 -0.239,-0.428l0,-11.703c0,-0.19 0.109,-0.364 0.278,-0.45l11.704,-5.851c0.156,-0.078 0.34,-0.071 0.49,0.022c0.147,0.091 0.238,0.254 0.238,0.427l0,11.705c0,0.19 -0.108,0.365 -0.278,0.449l-11.704,5.851c-0.071,0.035 -0.149,0.053 -0.225,0.053" style="fill-rule:nonzero;"/><path d="M1499.71,560.091l11.703,5.852l11.703,-5.852l-11.703,-5.852l-11.703,5.852Z" style="fill:#fff;fill-rule:nonzero;"/><path d="M1500.83,560.091l10.579,5.29l10.58,-5.29l-10.58,-5.289l-10.579,5.289Zm10.579,6.355c-0.077,0 -0.154,-0.017 -0.225,-0.053l-11.704,-5.852c-0.17,-0.085 -0.277,-0.259 -0.277,-0.45c0,-0.189 0.107,-0.364 0.277,-0.45l11.704,-5.852c0.141,-0.07 0.309,-0.07 0.45,0l11.704,5.852c0.17,0.086 0.278,0.261 0.278,0.45c0,0.191 -0.108,0.365 -0.278,0.45l-11.704,5.852c-0.071,0.036 -0.148,0.053 -0.225,0.053" style="fill-rule:nonzero;"/><path d="M1488,548.388l23.407,-11.704l23.407,11.704l-23.407,11.703l-23.407,-11.703Z" style="fill:#fff;fill-rule:nonzero;"/><path d="M1489.13,548.388l22.283,11.141l22.283,-11.141l-22.283,-11.141l-22.283,11.141Zm22.283,12.206c-0.077,0 -0.154,-0.017 -0.224,-0.053l-23.408,-11.703c-0.171,-0.085 -0.278,-0.26 -0.278,-0.45c0,-0.19 0.107,-0.364 0.278,-0.45l23.408,-11.703c0.14,-0.071 0.308,-0.071 0.449,0l23.408,11.703c0.17,0.086 0.277,0.26 0.277,0.45c0,0.19 -0.107,0.365 -0.277,0.45l-23.408,11.703c-0.071,0.036 -0.148,0.053 -0.225,0.053" style="fill-rule:nonzero;"/><path d="M1499.71,560.091l0,11.704l11.703,5.852l0,-11.704l-11.703,-5.852Z" style="fill:#fff;fill-rule:nonzero;"/><path d="M1500.21,571.484l10.698,5.349l0,-10.579l-10.698,-5.35l0,10.58Zm11.201,6.666c-0.076,0 -0.154,-0.018 -0.224,-0.054l-11.705,-5.851c-0.169,-0.086 -0.277,-0.26 -0.277,-0.45l0,-11.705c0,-0.173 0.09,-0.335 0.238,-0.427c0.148,-0.092 0.333,-0.1 0.49,-0.022l11.703,5.852c0.171,0.086 0.278,0.259 0.278,0.449l0,11.705c0,0.174 -0.091,0.336 -0.239,0.427c-0.08,0.05 -0.172,0.076 -0.264,0.076" style="fill-rule:nonzero;"/><path d="M1511.41,577.647l11.703,-5.852l0,-11.704l-11.703,5.852l0,11.704Z" style="fill-rule:nonzero;"/><path d="M1511.91,566.254l0,10.579l10.698,-5.349l0,-10.58l-10.698,5.35Zm-0.503,11.896c-0.092,0 -0.184,-0.026 -0.264,-0.076c-0.148,-0.091 -0.239,-0.253 -0.239,-0.427l0,-11.705c0,-0.19 0.109,-0.363 0.278,-0.449l11.704,-5.852c0.156,-0.078 0.34,-0.07 0.49,0.022c0.147,0.092 0.238,0.254 0.238,0.427l0,11.705c0,0.19 -0.108,0.364 -0.278,0.45l-11.704,5.851c-0.071,0.036 -0.149,0.054 -0.225,0.054" style="fill-rule:nonzero;"/><path d="M1488,519.13l0,23.406l23.407,11.703l0,-23.407l-23.407,-11.702Z" style="fill:#fff;fill-rule:nonzero;"/><path d="M1488.51,542.225l22.401,11.2l0,-22.282l-22.401,-11.2l0,22.282Zm22.904,12.517c-0.076,0 -0.154,-0.017 -0.224,-0.053l-23.408,-11.703c-0.17,-0.086 -0.278,-0.259 -0.278,-0.45l0,-23.406c0,-0.175 0.09,-0.337 0.238,-0.428c0.149,-0.091 0.334,-0.1 0.491,-0.022l23.406,11.702c0.171,0.086 0.278,0.26 0.278,0.45l0,23.407c0,0.174 -0.091,0.336 -0.239,0.428c-0.08,0.05 -0.172,0.075 -0.264,0.075" style="fill-rule:nonzero;"/><path d="M1534.82,519.13l0,23.406l-23.407,11.703l0,-23.407l23.407,-11.702Z" style="fill-rule:nonzero;"/><path d="M1511.91,531.144l0,22.282l22.401,-11.2l0,-22.282l-22.401,11.2Zm-0.503,23.599c-0.092,0 -0.184,-0.026 -0.264,-0.076c-0.148,-0.092 -0.239,-0.253 -0.239,-0.427l0,-23.408c0,-0.19 0.109,-0.364 0.278,-0.449l23.407,-11.702c0.156,-0.079 0.342,-0.07 0.49,0.022c0.148,0.091 0.238,0.253 0.238,0.427l0,23.407c0,0.19 -0.107,0.363 -0.277,0.449l-23.408,11.703c-0.071,0.036 -0.149,0.054 -0.225,0.054" style="fill-rule:nonzero;"/><path d="M1488,548.388l0,11.703l23.407,11.704l0,-11.704l-23.407,-11.703Z" style="fill:#fff;fill-rule:nonzero;"/><path d="M1488.51,559.78l22.401,11.201l0,-10.579l-22.401,-11.201l0,10.579Zm22.904,12.518c-0.076,0 -0.154,-0.018 -0.224,-0.053l-23.408,-11.704c-0.17,-0.086 -0.278,-0.259 -0.278,-0.45l0,-11.704c0,-0.174 0.09,-0.336 0.238,-0.427c0.149,-0.092 0.334,-0.099 0.491,-0.022l23.406,11.703c0.171,0.086 0.278,0.26 0.278,0.45l0,11.704c0,0.174 -0.091,0.336 -0.239,0.427c-0.08,0.05 -0.172,0.076 -0.264,0.076" style="fill-rule:nonzero;"/><path d="M1534.82,548.388l-23.407,11.703l0,11.704l23.407,-11.704l0,-11.703Z" style="fill-rule:nonzero;"/><path d="M1511.91,560.402l0,10.58l22.401,-11.202l0,-10.579l-22.401,11.201Zm-0.503,11.896c-0.092,0 -0.184,-0.025 -0.264,-0.075c-0.148,-0.092 -0.239,-0.254 -0.239,-0.428l0,-11.704c0,-0.189 0.109,-0.364 0.278,-0.45l23.407,-11.703c0.156,-0.077 0.342,-0.069 0.49,0.022c0.148,0.091 0.238,0.254 0.238,0.428l0,11.703c0,0.191 -0.107,0.365 -0.277,0.45l-23.408,11.704c-0.071,0.035 -0.149,0.053 -0.225,0.053" style="fill-rule:nonzero;"/><path d="M1452.89,554.239l0,11.704l58.518,29.259l0,-11.702l-58.518,-29.261Z" style="fill:#fff;fill-rule:nonzero;"/><path d="M1453.4,565.632l57.513,28.756l0,-10.578l-57.513,-28.758l0,10.58Zm58.016,30.073c-0.077,0 -0.155,-0.018 -0.226,-0.053l-58.518,-29.259c-0.17,-0.085 -0.278,-0.26 -0.278,-0.45l0,-11.704c0,-0.175 0.091,-0.336 0.239,-0.428c0.148,-0.092 0.333,-0.1 0.49,-0.022l58.517,29.261c0.171,0.084 0.279,0.259 0.279,0.45l0,11.702c0,0.174 -0.091,0.336 -0.24,0.428c-0.08,0.049 -0.172,0.075 -0.263,0.075" style="fill-rule:nonzero;"/><path d="M1569.93,554.239l0,11.704l-58.519,29.259l0,-11.702l58.519,-29.261Z" style="fill-rule:nonzero;"/><path d="M1511.91,583.81l0,10.578l57.513,-28.756l0,-10.58l-57.513,28.758Zm-0.503,11.895c-0.092,0 -0.184,-0.026 -0.264,-0.076c-0.148,-0.091 -0.239,-0.253 -0.239,-0.427l0,-11.703c0,-0.19 0.109,-0.365 0.278,-0.449l58.518,-29.261c0.156,-0.079 0.342,-0.07 0.489,0.022c0.149,0.092 0.24,0.253 0.24,0.428l0,11.703c0,0.191 -0.108,0.366 -0.279,0.451l-58.518,29.258c-0.071,0.036 -0.149,0.054 -0.225,0.054" style="fill-rule:nonzero;"/></g><g opacity="0.28"><path d="M1499.62,229.964l11.703,5.852l11.703,-5.852l-11.703,-5.853l-11.703,5.853Z" style="fill:#fff;fill-rule:nonzero;stroke:#000;stroke-width:2px;"/><path d="M1499.62,229.964l0,117.04l11.703,5.853l0,-117.041l-11.703,-5.852Z" style="fill:#fff;fill-rule:nonzero;stroke:#000;stroke-width:2px;"/><path d="M1523.03,229.964l-11.703,5.852l0,117.041l11.703,-5.853l0,-117.04Z" style="fill-rule:nonzero;stroke:#000;stroke-width:2px;"/><path d="M1499.62,323.598l11.703,5.851l11.703,-5.851l0,-11.705l23.41,11.705l-35.113,17.555l-35.113,-17.555l23.41,-11.705l0,11.705Z" style="fill:#fff;fill-rule:nonzero;stroke:#000;stroke-width:2px;"/><path d="M1476.21,323.598l0,5.851l35.113,17.556l0,-5.852l-35.113,-17.555Z" style="fill:#fff;fill-rule:nonzero;stroke:#000;stroke-width:2px;"/><path d="M1546.44,323.598l-35.113,17.555l0,5.852l35.113,-17.556l0,-5.851Z" style="fill-rule:nonzero;stroke:#000;stroke-width:2px;"/><path d="M1452.81,282.633l46.816,-23.408l0,23.408l11.704,5.852l11.703,-5.852l0,-23.408l46.817,23.408l-58.52,29.26l-58.52,-29.26Z" style="fill:#fff;fill-rule:nonzero;stroke:#000;stroke-width:2px;"/><path d="M1452.81,282.633l0,11.704l58.52,29.261l0,-11.705l-58.52,-29.26Z" style="fill:#fff;fill-rule:nonzero;stroke:#000;stroke-width:2px;"/><path d="M1569.85,282.633l0,11.704l-58.521,29.261l0,-11.705l58.521,-29.26Z" style="fill-rule:nonzero;stroke:#000;stroke-width:2px;"/><path d="M1452.81,265.077l46.816,-23.408l0,23.408l11.704,5.852l11.703,-5.852l0,-23.408l46.817,23.408l-58.52,29.26l-58.52,-29.26Z" style="fill:#fff;fill-rule:nonzero;stroke:#000;stroke-width:2px;"/><path d="M1452.81,265.077l0,11.705l58.52,29.259l0,-11.704l-58.52,-29.26Z" style="fill:#fff;fill-rule:nonzero;stroke:#000;stroke-width:2px;"/><path d="M1569.85,265.077l0,11.705l-58.521,29.259l0,-11.704l58.521,-29.26Z" style="fill-rule:nonzero;stroke:#000;stroke-width:2px;"/><path d="M1499.62,259.225l11.703,5.852l11.703,-5.852l0,-11.703l23.41,11.703l-35.113,17.557l-35.113,-17.557l23.41,-11.703l0,11.703Z" style="fill:#fff;fill-rule:nonzero;stroke:#000;stroke-width:2px;"/><path d="M1476.21,259.225l0,5.852l35.113,17.556l0,-5.851l-35.113,-17.557Z" style="fill:#fff;fill-rule:nonzero;stroke:#000;stroke-width:2px;"/><path d="M1546.44,259.225l-35.113,17.557l0,5.851l35.113,-17.556l0,-5.852Z" style="fill-rule:nonzero;stroke:#000;stroke-width:2px;"/><path d="M1499.62,247.521l11.703,5.851l11.703,-5.851l0,-11.705l23.41,11.705l-35.113,17.555l-35.113,-17.555l23.41,-11.705l0,11.705Z" style="fill:#fff;fill-rule:nonzero;stroke:#000;stroke-width:2px;"/><path d="M1476.21,247.521l0,5.851l35.113,17.556l0,-5.852l-35.113,-17.555Z" style="fill:#fff;fill-rule:nonzero;stroke:#000;stroke-width:2px;"/><path d="M1546.44,247.521l-35.113,17.555l0,5.852l35.113,-17.556l0,-5.851Z" style="fill-rule:nonzero;stroke:#000;stroke-width:2px;"/></g><g opacity="0.28"><path d="M1486.91,802.177l23.862,-11.931l23.864,11.931l-23.864,11.931l-23.862,-11.931Z" style="fill:#fff;fill-rule:nonzero;stroke:#000;stroke-width:2px;"/><path d="M1486.91,802.177l0,23.862l23.862,11.932l0,-23.863l-23.862,-11.931Z" style="fill:#fff;fill-rule:nonzero;stroke:#000;stroke-width:2px;"/><path d="M1534.63,802.177l0,23.862l-23.863,11.932l0,-23.863l23.863,-11.931Z" style="fill-rule:nonzero;stroke:#000;stroke-width:2px;"/><path d="M1451.11,790.246l59.656,-29.828l59.657,29.828l-59.657,29.828l-59.656,-29.828Z" style="fill:#fff;fill-rule:nonzero;stroke:#000;stroke-width:2px;"/><path d="M1451.11,790.246l0,11.931l59.656,29.827l0,-11.93l-59.656,-29.828Z" style="fill:#fff;fill-rule:nonzero;stroke:#000;stroke-width:2px;"/><path d="M1570.42,790.246l0,11.931l-59.656,29.827l0,-11.93l59.656,-29.828Z" style="fill-rule:nonzero;stroke:#000;stroke-width:2px;"/><path d="M1451.11,760.418l59.656,-29.828l59.657,29.828l-59.657,29.828l-59.656,-29.828Z" style="fill:#fff;fill-rule:nonzero;stroke:#000;stroke-width:2px;"/><path d="M1451.11,760.418l0,23.861l59.656,29.828l0,-23.861l-59.656,-29.828Z" style="fill:#fff;fill-rule:nonzero;stroke:#000;stroke-width:2px;"/><path d="M1510.77,790.246l59.656,-29.828l0,23.861l-59.656,29.828l0,-23.861Z" style="fill-rule:nonzero;stroke:#000;stroke-width:2px;"/><path d="M1451.11,742.521l59.656,-29.829l59.657,29.828l-59.657,29.828l-59.656,-29.828Z" style="fill:#fff;fill-rule:nonzero;stroke:#000;stroke-width:2px;"/><path d="M1451.11,742.521l0,11.93l59.656,29.828l0,-11.93l-59.656,-29.829Z" style="fill:#fff;fill-rule:nonzero;stroke:#000;stroke-width:2px;"/><path d="M1570.42,742.521l0,11.93l-59.656,29.828l0,-11.931l59.656,-29.827Z" style="fill-rule:nonzero;stroke:#000;stroke-width:2px;"/><path d="M1486.91,718.658l23.862,-11.932l23.864,11.932l-23.864,11.932l-23.862,-11.932Z" style="fill:#fff;fill-rule:nonzero;stroke:#000;stroke-width:2px;"/><path d="M1486.91,718.658l0,23.863l23.862,11.93l0,-23.861l-23.862,-11.932Z" style="fill:#fff;fill-rule:nonzero;stroke:#000;stroke-width:2px;"/><path d="M1534.63,718.658l0,23.863l-23.863,11.93l0,-23.861l23.863,-11.932Z" style="fill-rule:nonzero;stroke:#000;stroke-width:2px;"/><path d="M1457.08,772.349l0,5.965l47.725,23.863l0,-5.965l-47.725,-23.863Z" style="fill:#fff;fill-rule:nonzero;stroke:#000;stroke-width:2px;"/><path d="M1516.73,796.211l0,5.965l47.726,-23.862l0,-5.966l-47.726,23.863Z" style="fill:#fff;fill-rule:nonzero;stroke:#000;stroke-width:2px;"/><path d="M1516.73,796.211l0,5.965l47.726,-23.862l-5.966,-2.984l-41.76,20.881Z" style="fill:#fff;fill-rule:nonzero;stroke:#000;stroke-width:2px;"/><path d="M1457.08,778.314l47.725,23.863l0,-5.966l-41.76,-20.88l-5.965,2.983Z" style="fill:#fff;fill-rule:nonzero;stroke:#000;stroke-width:2px;"/></g></g></svg>