<?xml version="1.0" encoding="UTF-8" standalone="no"?><!DOCTYPE svg PUBLIC "-//W3C//DTD SVG 1.1//EN" "http://www.w3.org/Graphics/SVG/1.1/DTD/svg11.dtd"><svg width="100%" height="100%" viewBox="0 0 191 70" version="1.1" xmlns="http://www.w3.org/2000/svg" xmlns:xlink="http://www.w3.org/1999/xlink" xml:space="preserve" xmlns:serif="http://www.serif.com/" style="fill-rule:evenodd;clip-rule:evenodd;stroke-linejoin:round;stroke-miterlimit:2;"><path d="M60.75,39.9l8.81,-16.85l10.11,0.03l-14.87,25.5c-4.89,8.45 -6.67,11.11 -16.03,11.08c-1.92,-0.01 -3.79,-0.22 -4.6,-0.22l1.89,-7.57c0.76,0 1.45,0.06 2.16,0.06c3.29,0.01 4.29,-0.98 3.99,-4.01l-2.48,-24.93l10.57,0.03l0.45,16.88Z" style="fill:#fff;fill-rule:nonzero;"/><path d="M93.42,50.51c-14,0.74 -15.42,-0.26 -13.06,-9.71l2.86,-11.43l-3.74,-0.01l1.56,-6.26l3.89,0.01l2.13,-8.51l10.37,0.03l-2.13,8.51l5.06,0.02l-1.57,6.26l-5.06,-0.02l-2.48,9.92c-0.63,2.51 -0.49,3.39 2.44,3.4l1.67,0.01l-1.94,7.78Z" style="fill:#fff;fill-rule:nonzero;"/><path d="M105.41,23.17l9.56,0.03l-1.38,5.53l0.1,0c2.54,-4.28 5.62,-6.3 9.72,-6.29c0.46,0 0.88,0.11 1.33,0.16l-2.71,10.86c-0.68,-0.11 -1.39,-0.32 -2.1,-0.32c-4.3,-0.01 -7,2.07 -8.47,7.97l-2.36,9.45l-10.52,-0.03l6.83,-27.36Z" style="fill:#fff;fill-rule:nonzero;"/><path d="M141.31,22.5c9.35,0.03 13.7,5.74 11.57,14.25c-2.5,10.02 -10.25,14.7 -18.75,14.67c-8.5,-0.03 -13.87,-4.85 -11.53,-14.2c2.37,-9.49 9.76,-14.75 18.71,-14.72Zm-8.05,14.19c-1.29,5.17 0.02,7.42 2.7,7.43c2.83,0.01 5.11,-2.23 6.4,-7.4c1,-4.02 0.04,-7.05 -2.73,-6.91c-3.59,-0.01 -5.6,3.8 -6.37,6.88Z" style="fill:#fff;fill-rule:nonzero;"/><path d="M160.48,23.35l9.61,0.03l-1.07,4.28c3.2,-3.28 6.22,-5.05 10.22,-5.04c6.98,0.02 9.21,4.26 7.33,11.78l-4.09,16.39l-10.52,-0.03l3.61,-14.46c0.68,-2.71 0.57,-5.12 -2.41,-5.13c-3.24,-0.01 -4.63,2.13 -5.5,5.62l-3.48,13.94l-10.52,-0.03l6.82,-27.35Z" style="fill:#fff;fill-rule:nonzero;"/><path d="M67.39,55.99l1.5,0l-0.28,1.38l0.04,0c0.45,-0.52 1.5,-1.67 3.19,-1.67c1.7,0 2.02,1.07 2.18,1.59c0.98,-0.92 1.75,-1.59 3.22,-1.59c1.01,0 2.81,0.54 2.25,3.29l-1.39,6.77l-1.6,0l1.3,-6.33c0.28,-1.35 0.07,-2.26 -1.29,-2.26c-1.34,0 -2.49,1.31 -2.76,2.62l-1.22,5.97l-1.59,0l1.39,-6.76c0.17,-0.82 0.06,-1.82 -1.11,-1.82c-0.9,0 -2.61,0.6 -3.16,3.26l-1.09,5.33l-1.59,0l2.01,-9.78Z" style="fill:#fff;fill-rule:nonzero;"/><path d="M81.86,58.96c0.55,-2.34 2.24,-3.26 4.57,-3.26c0.76,0 3.46,0.22 2.94,2.73l-1.15,5.63c-0.08,0.41 0.08,0.58 0.4,0.58c0.14,0 0.35,-0.04 0.54,-0.07l-0.25,1.2c-0.29,0.08 -0.54,0.19 -0.91,0.19c-1.41,0 -1.47,-0.75 -1.37,-1.5c-0.76,0.69 -1.9,1.59 -3.74,1.59c-1.73,0 -2.73,-1.14 -2.38,-2.83c0.17,-0.82 0.79,-2.73 3.5,-3.07l2.69,-0.34c0.39,-0.04 0.87,-0.19 1.07,-1.16c0.21,-1.03 -0.4,-1.59 -1.9,-1.59c-1.81,0 -2.29,1.14 -2.55,1.89l-1.46,0l0,0.01Zm5.44,1.82c-0.3,0.21 -0.72,0.36 -2.75,0.62c-0.8,0.11 -2.1,0.36 -2.35,1.59c-0.22,1.07 0.18,1.7 1.37,1.7c1.48,0 3.13,-0.99 3.4,-2.3l0.33,-1.61Z" style="fill:#fff;fill-rule:nonzero;"/><path d="M98.34,65.77l-1.59,0l1.23,-6.03c0.35,-1.7 0.06,-2.56 -1.5,-2.56c-0.9,0 -2.61,0.6 -3.16,3.26l-1.09,5.33l-1.59,0l2.01,-9.79l1.5,0l-0.28,1.38l0.04,0c0.45,-0.52 1.57,-1.67 3.19,-1.67c1.46,0 3.18,0.62 2.61,3.41l-1.37,6.67Z" style="fill:#fff;fill-rule:nonzero;"/><path d="M106.76,65.77l0.29,-1.42l-0.03,-0.04c-0.9,1.14 -1.84,1.74 -3.35,1.74c-1.39,0 -2.93,-0.69 -2.45,-3.03l1.44,-7.04l1.59,0l-1.33,6.49c-0.33,1.61 0.35,2.15 1.38,2.15c2,0 2.97,-1.83 3.27,-3.26l1.1,-5.39l1.59,0l-2.01,9.79l-1.49,0l0,0.01Z" style="fill:#fff;fill-rule:nonzero;"/><path d="M114.43,57.35l-1.72,8.42l-1.59,0l1.73,-8.42l-1.3,0l0.28,-1.37l1.3,0l0.34,-1.68c0.3,-1.48 1.34,-2.15 2.9,-2.15c0.23,0 0.47,0.02 0.71,0.04l-0.3,1.48c-0.2,-0.02 -0.44,-0.04 -0.64,-0.04c-0.69,0 -1.01,0.36 -1.17,1.14l-0.25,1.22l1.59,0l-0.28,1.37l-1.6,0l0,-0.01Z" style="fill:#fff;fill-rule:nonzero;"/><path d="M116.64,58.96c0.55,-2.34 2.24,-3.26 4.57,-3.26c0.76,0 3.46,0.22 2.94,2.73l-1.15,5.64c-0.08,0.41 0.08,0.58 0.4,0.58c0.14,0 0.35,-0.04 0.54,-0.07l-0.24,1.2c-0.29,0.08 -0.54,0.19 -0.91,0.19c-1.41,0 -1.47,-0.75 -1.37,-1.5c-0.76,0.69 -1.9,1.59 -3.74,1.59c-1.73,0 -2.73,-1.14 -2.38,-2.83c0.17,-0.82 0.79,-2.73 3.5,-3.07l2.69,-0.34c0.39,-0.04 0.87,-0.19 1.07,-1.16c0.21,-1.03 -0.4,-1.59 -1.89,-1.59c-1.81,0 -2.29,1.14 -2.55,1.89l-1.48,0Zm5.45,1.82c-0.29,0.21 -0.72,0.36 -2.75,0.62c-0.8,0.11 -2.1,0.36 -2.35,1.59c-0.22,1.07 0.17,1.7 1.37,1.7c1.48,0 3.13,-0.99 3.4,-2.3l0.33,-1.61Z" style="fill:#fff;fill-rule:nonzero;"/><path d="M132.67,59.28c0.07,-1.31 -0.47,-2.1 -1.81,-2.1c-1.97,0 -3,1.95 -3.36,3.69c-0.34,1.68 -0.37,3.76 1.81,3.76c1.07,0 2.16,-0.82 2.73,-2.32l1.54,0c-0.48,1.55 -1.85,3.74 -4.61,3.74c-2.65,0 -3.8,-2.08 -3.22,-4.9c0.62,-3.03 2.52,-5.44 5.65,-5.44c2.47,0 3.03,1.87 2.81,3.57l-1.54,0Z" style="fill:#fff;fill-rule:nonzero;"/><path d="M138.23,57.35l-1.3,6.36c-0.16,0.77 0.48,0.77 0.8,0.77l0.56,0l-0.27,1.29c-0.59,0.06 -1.06,0.13 -1.22,0.13c-1.57,0 -1.73,-0.92 -1.49,-2.1l1.32,-6.46l-1.28,0l0.28,-1.37l1.28,0l0.56,-2.73l1.59,0l-0.56,2.73l1.52,0l-0.28,1.37l-1.51,0l0,0.01Z" style="fill:#fff;fill-rule:nonzero;"/><path d="M145.82,65.77l0.29,-1.42l-0.03,-0.04c-0.9,1.14 -1.84,1.74 -3.35,1.74c-1.39,0 -2.93,-0.69 -2.45,-3.03l1.44,-7.04l1.59,0l-1.33,6.49c-0.33,1.61 0.35,2.15 1.38,2.15c2,0 2.98,-1.83 3.27,-3.26l1.1,-5.39l1.59,0l-2.01,9.79l-1.49,0l0,0.01Z" style="fill:#fff;fill-rule:nonzero;"/><path d="M151.6,65.77l-1.59,0l2.01,-9.79l1.5,0l-0.33,1.63l0.04,0c0.87,-1.14 1.85,-1.91 3.05,-1.91c0.2,0 0.28,0.02 0.4,0.06l-0.35,1.7l-0.59,0c-1.48,0 -2.67,1.2 -2.96,2.62l-1.18,5.69Z" style="fill:#fff;fill-rule:nonzero;"/><path d="M157.79,65.77l-1.59,0l2.01,-9.79l1.59,0l-2.01,9.79Zm0.78,-11.56l0.38,-1.87l1.59,0l-0.38,1.87l-1.59,0Z" style="fill:#fff;fill-rule:nonzero;"/><path d="M167.96,65.77l-1.59,0l1.23,-6.03c0.35,-1.7 0.06,-2.56 -1.5,-2.56c-0.9,0 -2.62,0.6 -3.16,3.26l-1.09,5.33l-1.59,0l2,-9.79l1.5,0l-0.28,1.38l0.04,0c0.45,-0.52 1.57,-1.67 3.19,-1.67c1.46,0 3.18,0.62 2.61,3.41l-1.36,6.67Z" style="fill:#fff;fill-rule:nonzero;"/><path d="M178.4,64.97c-0.29,1.4 -1.03,4.92 -5.4,4.92c-1.12,0 -3.24,-0.32 -3.01,-2.92l1.59,0c-0.03,1.55 1.44,1.55 1.81,1.55c2.74,0 3.16,-2.28 3.39,-3.44l0.09,-0.41l-0.04,0l-0.02,0.08c-0.56,0.69 -1.51,1.31 -2.78,1.31c-3.21,0 -3.51,-3.13 -3.03,-5.46c0.56,-2.75 2.43,-4.88 4.94,-4.88c1.72,0 2.21,1.1 2.48,1.67l0.04,0l0.28,-1.38l1.5,0l-1.84,8.96Zm-4.03,-0.34c1.01,0 2.72,-0.69 3.26,-3.29c0.33,-1.59 0.6,-4.15 -1.69,-4.15c-2.46,0 -3.08,2.41 -3.33,3.67c-0.45,2.14 0.03,3.77 1.76,3.77Z" style="fill:#fff;fill-rule:nonzero;"/><path d="M3.97,50.21l9.39,-37.59l11.93,0.04l-3.17,12.69l11.28,0.04l3.17,-12.69l11.93,0.04l-9.39,37.59l-11.93,-0.04l3.64,-14.57l-11.28,-0.04l-3.64,14.57l-11.93,-0.04Z" style="fill:#fff;fill-rule:nonzero;"/></svg>