<?xml version="1.0" encoding="UTF-8" standalone="no"?><!DOCTYPE svg PUBLIC "-//W3C//DTD SVG 1.1//EN" "http://www.w3.org/Graphics/SVG/1.1/DTD/svg11.dtd"><svg width="100%" height="100%" viewBox="0 0 13 13" version="1.1" xmlns="http://www.w3.org/2000/svg" xmlns:xlink="http://www.w3.org/1999/xlink" xml:space="preserve" xmlns:serif="http://www.serif.com/" style="fill-rule:evenodd;clip-rule:evenodd;stroke-linejoin:round;"><ellipse cx="6.192" cy="6.104" rx="5.915" ry="5.926" style="fill:#010000;"/><rect id="Artboard1" x="0" y="0" width="12.379" height="12.384" style="fill:none;"/><g><g><clipPath id="_clip1"><rect x="4.998" y="7.768" width="2.683" height="2.639" clip-rule="nonzero"/></clipPath><g clip-path="url(#_clip1)"><path d="M6.619,8.069c-0.053,0.048 -0.25,0.27 -0.196,0.461l-1.382,0.552c0,0 0.755,1.206 0.836,1.274c0.081,0.068 0.269,-0.325 0.242,-0.732l1.159,-0.569c0,0 0.458,-0.142 0.368,-0.786" style="fill:none;fill-rule:nonzero;stroke:#fff;stroke-width:0.31px;"/></g></g><g><clipPath id="_clip2"><rect x="8.207" y="6.843" width="2.829" height="2.678" clip-rule="nonzero"/></clipPath><g clip-path="url(#_clip2)"><path d="M8.469,8.118l0.113,0.041l0.906,1.302l1.468,-0.948c0,0 0.135,-0.217 -0.108,-0.271c-0.242,-0.055 -0.929,0.067 -0.929,0.067l-0.851,-1.026" style="fill:none;fill-rule:nonzero;stroke:#fff;stroke-width:0.31px;stroke-linejoin:miter;"/></g></g><g><path d="M1.969,3.173c0,0 0.15,0.011 0.489,0.073c0.309,0.057 0.902,0.688 1.491,1.663c0,0 -0.604,-0.113 -0.705,-0.138c-0.393,-0.099 -0.627,-0.595 -0.758,-0.734c-0.11,-0.118 -0.267,-0.494 -0.84,-0.295c0,0 0.081,-0.353 0.323,-0.569Z" style="fill:none;fill-rule:nonzero;stroke:#fff;stroke-width:0.31px;"/></g><g><clipPath id="_clip3"><rect x="1.605" y="3.729" width="0.975" height="0.678" clip-rule="nonzero"/></clipPath><g clip-path="url(#_clip3)"><path d="M1.646,3.742c0,0 0.17,0.565 0.251,0.62l0.673,-0.156" style="fill:none;fill-rule:nonzero;stroke:#fff;stroke-width:0.31px;stroke-linejoin:miter;"/></g></g><g><clipPath id="_clip4"><rect x="2.855" y="3.353" width="8.448" height="3.253" clip-rule="nonzero"/></clipPath><g clip-path="url(#_clip4)"><path d="M2.885,3.579c0,0 0.324,-0.325 0.54,-0.108c0.215,0.217 0.595,0.682 0.754,0.921c0.162,0.244 0.377,0.515 0.512,0.624c0.135,0.108 0.216,0.135 0.404,0.19l3.572,0.867" style="fill:none;fill-rule:nonzero;stroke:#fff;stroke-width:0.31px;stroke-linejoin:miter;"/></g><clipPath id="_clip5"><rect x="2.855" y="3.353" width="8.448" height="3.253" clip-rule="nonzero"/></clipPath><g clip-path="url(#_clip5)"><path d="M9.317,6.233l1.41,0.328c0,0 0.311,0.05 0.458,-0.393c0.135,-0.407 0.081,-0.718 -0.108,-0.773l-1.273,-0.345" style="fill:none;fill-rule:nonzero;stroke:#fff;stroke-width:0.31px;stroke-linejoin:miter;"/></g><clipPath id="_clip6"><rect x="2.855" y="3.353" width="8.448" height="3.253" clip-rule="nonzero"/></clipPath><g clip-path="url(#_clip6)"><path d="M9.216,4.957l-3.878,-0.944c0,0 0.134,0.244 0.134,0.434c0,0.189 0,0.189 -0.161,0.162c-0.162,-0.027 -0.243,-0.081 -0.35,-0.244c-0.108,-0.162 -0.189,-0.488 -0.378,-0.542c-0.188,-0.054 -1.158,-0.352 -1.158,-0.352" style="fill:none;fill-rule:nonzero;stroke:#fff;stroke-width:0.31px;stroke-linejoin:miter;"/></g></g><g><clipPath id="_clip7"><path d="M4.626,3.86l0.545,0.123l0.035,-0.154l-0.546,-0.123l-0.034,0.154Z" clip-rule="nonzero"/></clipPath><g clip-path="url(#_clip7)"><path d="M4.652,3.801c0.206,-0.03 0.4,0.043 0.514,0.133" style="fill:none;fill-rule:nonzero;stroke:#fff;stroke-width:0.31px;stroke-linejoin:miter;"/></g></g><g><clipPath id="_clip8"><path d="M3.684,4.999l1.018,0.196l0.035,-0.182l-1.018,-0.196l-0.035,0.182Z" clip-rule="nonzero"/></clipPath><g clip-path="url(#_clip8)"><path d="M3.7,4.954c0,0 0.563,0.145 1,0.091" style="fill:none;fill-rule:nonzero;stroke:#fff;stroke-width:0.31px;stroke-linejoin:miter;"/></g></g><g><clipPath id="_clip9"><rect x="7.316" y="4.539" width="2.669" height="2.148" clip-rule="nonzero"/></clipPath><g clip-path="url(#_clip9)"><path d="M7.359,5.802l0.081,0.705l0.134,0.054l1.59,0.081c0,0 0.184,-0.138 0.351,-0.542c0.381,-0.926 0.467,-0.92 0.382,-1.128c-0.092,-0.224 -0.382,-0.58 -0.733,-0.227c0,0 -0.606,1.558 -1.01,1.83" style="fill:none;fill-rule:nonzero;stroke:#fff;stroke-width:0.31px;stroke-linejoin:miter;"/></g></g><g><g><path d="M8.538,6.687l-1.222,0l-0.682,1.163l-0.144,0.332l1.191,0.093l0.401,-0.238l0.429,0.145l0.862,-1.495l-0.835,0Z" style="fill:none;stroke:#fff;stroke-width:0.24px;stroke-linecap:round;stroke-miterlimit:1.5;"/></g></g><path d="M7.076,4.246l0.026,-0.626c0,0 0.249,-0.123 0.214,-0.123c-0.036,0 0.284,-0.067 0.284,-0.067l0.468,-0.066l0.495,0.094l0.197,0.106l0.151,0.056l0.819,0l0,0.501l-1.238,0l-0.24,-0.085l-1.086,0.196l-0.09,0.014Z" style="fill:none;stroke:#fff;stroke-width:0.24px;stroke-linecap:round;stroke-miterlimit:1.5;"/><path d="M8.855,4.232c-0.006,0.162 0.137,0.167 0.184,0.239c0.019,0.03 -0.017,0.241 -0.017,0.241" style="fill:none;stroke:#fff;stroke-width:0.15px;stroke-linecap:round;stroke-miterlimit:1.5;"/></g><g id="Layer1"></g></svg>