<?xml version="1.0" encoding="UTF-8" standalone="no"?><!DOCTYPE svg PUBLIC "-//W3C//DTD SVG 1.1//EN" "http://www.w3.org/Graphics/SVG/1.1/DTD/svg11.dtd"><svg width="100%" height="100%" viewBox="0 0 103 53" version="1.1" xmlns="http://www.w3.org/2000/svg" xmlns:xlink="http://www.w3.org/1999/xlink" xml:space="preserve" xmlns:serif="http://www.serif.com/" style="fill-rule:evenodd;clip-rule:evenodd;stroke-linejoin:round;stroke-miterlimit:2;"><g><path d="M74.299,6.695l3.358,-0.915l1.15,-3.287l1.907,2.913l3.48,0.077l-2.178,2.715l1.002,3.334l-3.256,-1.235l-2.861,1.984l0.166,-3.479l-2.768,-2.107Z" style="fill:#f4f5f6;fill-rule:nonzero;"/><path d="M87.814,13.908l3.834,-2.248l0.32,-4.433l3.322,2.952l4.315,-1.064l-1.781,4.07l2.347,3.774l-4.421,-0.432l-2.866,3.396l-0.954,-4.342l-4.116,-1.673Z" style="fill:#f4f5f6;fill-rule:nonzero;"/><path d="M94.573,24.887l3.11,1.565l3.051,-1.676l-0.526,3.44l2.538,2.383l-3.436,0.564l-1.481,3.148l-1.6,-3.092l-3.451,-0.437l2.446,-2.475l-0.651,-3.42Z" style="fill:#f4f5f6;fill-rule:nonzero;"/><path d="M63.733,0l-24.154,25.989l-0.507,-0.507l-12.958,-15.512l-24.342,31.775l97.602,0l-35.641,-41.745Z" style="fill:#f4f5f6;fill-rule:nonzero;"/><path d="M7.506,45.78l-2.661,0l0,6.127l-2.185,0l0,-6.127l-2.66,0l0,-1.97l7.506,0l0,1.97Z" style="fill:#f4f5f6;fill-rule:nonzero;"/><path d="M20.276,43.811l-3.143,8.202l-1.268,0l-1.886,-4.772l-1.933,4.772l-1.278,0l-3.08,-8.202l2.269,0l1.508,4.487l1.729,-4.487l1.566,0l1.698,4.487l1.576,-4.487l2.242,0Z" style="fill:#f4f5f6;fill-rule:nonzero;"/><rect x="21.024" y="43.811" width="2.19" height="8.098" style="fill:#f4f5f6;fill-rule:nonzero;"/><path d="M30.296,51.909l-5.516,0l0,-8.098l2.189,0l0,6.158l3.327,0l0,1.94Z" style="fill:#f4f5f6;fill-rule:nonzero;"/><rect x="31.311" y="43.811" width="2.191" height="8.098" style="fill:#f4f5f6;fill-rule:nonzero;"/><path d="M41.914,51.335c-0.158,0.066 -0.292,0.121 -0.404,0.164c-0.112,0.043 -0.218,0.082 -0.322,0.117c-0.103,0.035 -0.252,0.08 -0.448,0.135c-0.332,0.084 -0.663,0.15 -0.992,0.195c-0.33,0.045 -0.68,0.067 -1.046,0.067c-0.737,0 -1.418,-0.149 -2.043,-0.45c-0.625,-0.3 -1.125,-0.765 -1.5,-1.396c-0.375,-0.631 -0.563,-1.406 -0.563,-2.324c0,-0.592 0.097,-1.174 0.291,-1.745c0.195,-0.571 0.49,-1.027 0.888,-1.37c0.328,-0.284 0.661,-0.501 0.998,-0.651c0.337,-0.15 0.666,-0.25 0.987,-0.301c0.322,-0.051 0.676,-0.076 1.063,-0.076c0.639,0 1.167,0.055 1.582,0.161c0.416,0.107 0.872,0.249 1.367,0.425l0,1.916c-0.328,-0.215 -0.676,-0.394 -1.042,-0.537c-0.366,-0.145 -0.824,-0.217 -1.373,-0.217c-0.632,0 -1.138,0.133 -1.516,0.4c-0.379,0.268 -0.643,0.585 -0.791,0.956c-0.149,0.371 -0.222,0.728 -0.222,1.076c0,0.408 0.085,0.785 0.256,1.129c0.17,0.345 0.429,0.623 0.774,0.83c0.347,0.209 0.764,0.313 1.252,0.313c0.279,0 0.576,-0.041 0.892,-0.122l0,-0.953l-0.986,0l0,-1.629l2.898,0l0,3.887Z" style="fill:#f4f5f6;fill-rule:nonzero;"/><path d="M51.038,51.909l-2.185,0l0,-3.162l-3.295,0l0,3.162l-2.19,0l0,-8.098l2.19,0l0,2.975l3.295,0l0,-2.975l2.185,0l0,8.098Z" style="fill:#f4f5f6;fill-rule:nonzero;"/><path d="M59.554,45.78l-2.661,0l0,6.127l-2.184,0l0,-6.127l-2.662,0l0,-1.97l7.507,0l0,1.97Z" style="fill:#f4f5f6;fill-rule:nonzero;"/><path d="M65.64,49.553c0,0.506 -0.116,0.946 -0.348,1.315c-0.233,0.369 -0.557,0.652 -0.973,0.85c-0.416,0.197 -0.892,0.294 -1.43,0.294c-0.15,0 -0.334,-0.011 -0.553,-0.032c-0.218,-0.02 -0.507,-0.081 -0.87,-0.178c-0.361,-0.098 -0.738,-0.242 -1.129,-0.432l0,-1.986c0.368,0.252 0.728,0.463 1.082,0.63c0.354,0.167 0.734,0.251 1.139,0.251c0.374,0 0.616,-0.069 0.726,-0.208c0.11,-0.138 0.165,-0.267 0.165,-0.388c0,-0.219 -0.094,-0.403 -0.282,-0.553c-0.19,-0.15 -0.463,-0.305 -0.824,-0.464c-0.398,-0.186 -0.747,-0.391 -1.047,-0.61c-0.299,-0.221 -0.545,-0.496 -0.736,-0.828c-0.189,-0.33 -0.285,-0.721 -0.285,-1.174c0,-0.436 0.097,-0.83 0.288,-1.183c0.192,-0.352 0.485,-0.634 0.88,-0.844c0.395,-0.21 0.876,-0.315 1.446,-0.315c0.405,0 0.78,0.045 1.124,0.133c0.344,0.086 0.628,0.185 0.852,0.295c0.224,0.108 0.377,0.194 0.461,0.256l0,1.9c-0.297,-0.238 -0.628,-0.449 -0.992,-0.637c-0.366,-0.187 -0.755,-0.281 -1.171,-0.281c-0.273,0 -0.471,0.059 -0.593,0.176c-0.123,0.117 -0.184,0.26 -0.184,0.432c0,0.16 0.061,0.298 0.184,0.415c0.122,0.118 0.34,0.259 0.655,0.427c0.559,0.292 1.006,0.556 1.341,0.789c0.335,0.234 0.599,0.503 0.789,0.81c0.191,0.305 0.285,0.685 0.285,1.14Z" style="fill:#f4f5f6;fill-rule:nonzero;"/><path d="M73.361,51.3c-0.3,0.175 -0.608,0.316 -0.922,0.42c-0.313,0.105 -0.631,0.18 -0.951,0.225c-0.319,0.044 -0.65,0.067 -0.992,0.067c-0.633,0 -1.2,-0.097 -1.701,-0.292c-0.501,-0.195 -0.936,-0.481 -1.304,-0.862c-0.368,-0.379 -0.645,-0.824 -0.827,-1.332c-0.184,-0.508 -0.276,-1.066 -0.276,-1.674c0,-0.697 0.109,-1.308 0.325,-1.832c0.217,-0.523 0.52,-0.959 0.91,-1.306c0.388,-0.346 0.833,-0.603 1.331,-0.768c0.497,-0.164 1.021,-0.248 1.573,-0.248c0.824,0 1.758,0.204 2.803,0.613l0,2.151c-0.36,-0.25 -0.716,-0.457 -1.067,-0.623c-0.35,-0.166 -0.763,-0.248 -1.239,-0.248c-0.423,0 -0.816,0.092 -1.184,0.279c-0.367,0.187 -0.662,0.455 -0.884,0.801c-0.225,0.346 -0.335,0.752 -0.335,1.215c0,0.408 0.097,0.783 0.293,1.125c0.195,0.34 0.466,0.611 0.814,0.812c0.347,0.199 0.739,0.301 1.176,0.301c0.353,0 0.687,-0.049 1,-0.144c0.314,-0.096 0.579,-0.202 0.794,-0.319c0.216,-0.117 0.436,-0.254 0.663,-0.414l0,2.053Z" style="fill:#f4f5f6;fill-rule:nonzero;"/><path d="M79.201,48.858l-1.063,-2.956l-1.074,2.956l2.137,0Zm3.338,3.051l-2.243,0l-0.591,-1.643l-3.154,0l-0.603,1.643l-2.241,0l3.211,-8.098l2.419,0l3.202,8.098Z" style="fill:#f4f5f6;fill-rule:nonzero;"/><path d="M87.289,46.37c0,-0.386 -0.104,-0.65 -0.308,-0.793c-0.204,-0.143 -0.569,-0.213 -1.098,-0.213l-0.461,0l0,1.952l0.472,0c0.363,0 0.644,-0.024 0.838,-0.075c0.196,-0.052 0.337,-0.145 0.424,-0.281c0.088,-0.137 0.133,-0.334 0.133,-0.59Zm2.231,-0.013c0,0.3 -0.046,0.593 -0.139,0.879c-0.092,0.286 -0.242,0.554 -0.448,0.8c-0.206,0.248 -0.484,0.448 -0.835,0.602c-0.35,0.154 -0.763,0.23 -1.239,0.23l-1.436,0l0,3.039l-2.189,0l0,-8.098l3.624,0c0.476,0 0.889,0.078 1.239,0.233c0.351,0.156 0.629,0.358 0.835,0.608c0.206,0.249 0.356,0.521 0.448,0.812c0.093,0.295 0.14,0.592 0.14,0.895Z" style="fill:#f4f5f6;fill-rule:nonzero;"/><path d="M95.941,51.909l-5.474,0l0,-8.098l5.385,0l0,1.624l-3.196,0l0,1.484l3.05,0l0,1.631l-3.05,0l0,1.728l3.285,0l0,1.631Z" style="fill:#f4f5f6;fill-rule:nonzero;"/><path d="M102.217,49.553c0,0.506 -0.116,0.946 -0.35,1.315c-0.231,0.369 -0.555,0.652 -0.971,0.85c-0.417,0.197 -0.892,0.294 -1.431,0.294c-0.15,0 -0.334,-0.011 -0.552,-0.032c-0.219,-0.02 -0.509,-0.081 -0.87,-0.178c-0.362,-0.098 -0.739,-0.242 -1.129,-0.432l0,-1.986c0.366,0.252 0.727,0.463 1.082,0.63c0.353,0.167 0.733,0.251 1.138,0.251c0.374,0 0.617,-0.069 0.726,-0.208c0.11,-0.138 0.165,-0.267 0.165,-0.388c0,-0.219 -0.094,-0.403 -0.283,-0.553c-0.189,-0.15 -0.463,-0.305 -0.823,-0.464c-0.398,-0.186 -0.747,-0.391 -1.046,-0.61c-0.301,-0.221 -0.547,-0.496 -0.737,-0.828c-0.19,-0.33 -0.285,-0.721 -0.285,-1.174c0,-0.436 0.096,-0.83 0.288,-1.183c0.193,-0.352 0.486,-0.634 0.88,-0.844c0.396,-0.21 0.876,-0.315 1.446,-0.315c0.406,0 0.781,0.045 1.125,0.133c0.344,0.086 0.628,0.185 0.851,0.295c0.225,0.108 0.377,0.194 0.461,0.256l0,1.9c-0.297,-0.238 -0.628,-0.449 -0.993,-0.637c-0.364,-0.187 -0.755,-0.281 -1.171,-0.281c-0.272,0 -0.47,0.059 -0.592,0.176c-0.123,0.117 -0.184,0.26 -0.184,0.432c0,0.16 0.061,0.298 0.184,0.415c0.122,0.118 0.34,0.259 0.655,0.427c0.559,0.292 1.007,0.556 1.342,0.789c0.335,0.234 0.597,0.503 0.789,0.81c0.191,0.305 0.285,0.685 0.285,1.14Z" style="fill:#f4f5f6;fill-rule:nonzero;"/><path d="M39.771,23.917l7.675,-7.926c-3.15,-8.283 -11.755,-14.804 -21.602,-14.804c-12.544,0 -22.712,9.611 -22.712,21.466c0,4.098 1.215,7.926 3.324,11.184l19.607,-26.246" style="fill:#f4f5f6;fill-rule:nonzero;"/></g></svg>